<svg xmlns="http://www.w3.org/2000/svg" xmlns:xlink="http://www.w3.org/1999/xlink" viewBox="0 0 1280 1024"><defs><style>.cls-1{isolation:isolate;}.cls-2{fill:url(#Degradado_sin_nombre_5);}.cls-3{fill:url(#Degradado_sin_nombre_5-2);}.cls-4{fill:url(#Degradado_sin_nombre_5-3);}.cls-5{fill:url(#Degradado_sin_nombre_5-4);}.cls-6{fill:url(#Degradado_sin_nombre_5-5);}.cls-7{fill:url(#Degradado_sin_nombre_5-6);}.cls-8{fill:url(#Degradado_sin_nombre_5-7);}.cls-9{fill:url(#Degradado_sin_nombre_5-8);}.cls-10{fill:url(#Degradado_sin_nombre_5-9);}.cls-11{fill:url(#Degradado_sin_nombre_5-10);}.cls-12{fill:url(#Degradado_sin_nombre_5-11);}.cls-13,.cls-14{fill:url(#Degradado_sin_nombre_5-12);}.cls-14{opacity:0.51;}.cls-14,.cls-18{mix-blend-mode:multiply;}.cls-15{fill:url(#Degradado_sin_nombre_5-14);}.cls-16{fill:url(#Degradado_sin_nombre_5-15);}.cls-17{fill:url(#Degradado_sin_nombre_2);}.cls-18{opacity:0.33;fill:url(#Degradado_sin_nombre_17);}.cls-19{fill:url(#Degradado_sin_nombre_5-16);}</style><linearGradient id="Degradado_sin_nombre_5" x1="738.4" y1="808.66" x2="764.11" y2="683.24" gradientUnits="userSpaceOnUse"><stop offset="0" stop-color="#0ac5c6"/><stop offset="1" stop-color="#0a8af3"/></linearGradient><linearGradient id="Degradado_sin_nombre_5-2" x1="691.04" y1="664.07" x2="724.48" y2="712.39" xlink:href="#Degradado_sin_nombre_5"/><linearGradient id="Degradado_sin_nombre_5-3" x1="635.99" y1="669.27" x2="710.29" y2="776.67" xlink:href="#Degradado_sin_nombre_5"/><linearGradient id="Degradado_sin_nombre_5-4" x1="728.07" y1="716.55" x2="771.29" y2="779.02" xlink:href="#Degradado_sin_nombre_5"/><linearGradient id="Degradado_sin_nombre_5-5" x1="720.08" y1="616.96" x2="719.73" y2="614.66" xlink:href="#Degradado_sin_nombre_5"/><linearGradient id="Degradado_sin_nombre_5-6" x1="719.57" y1="628.08" x2="717.94" y2="617.44" xlink:href="#Degradado_sin_nombre_5"/><linearGradient id="Degradado_sin_nombre_5-7" x1="553.33" y1="692.25" x2="742.33" y2="692.25" xlink:href="#Degradado_sin_nombre_5"/><linearGradient id="Degradado_sin_nombre_5-8" x1="711.72" y1="717.5" x2="703.72" y2="665.39" xlink:href="#Degradado_sin_nombre_5"/><linearGradient id="Degradado_sin_nombre_5-9" x1="682.97" y1="767.72" x2="674" y2="709.35" xlink:href="#Degradado_sin_nombre_5"/><linearGradient id="Degradado_sin_nombre_5-10" x1="610.48" y1="507.27" x2="615.6" y2="507.27" xlink:href="#Degradado_sin_nombre_5"/><linearGradient id="Degradado_sin_nombre_5-11" x1="600.8" y1="501.02" x2="641.06" y2="501.02" xlink:href="#Degradado_sin_nombre_5"/><linearGradient id="Degradado_sin_nombre_5-12" x1="632.36" y1="451.98" x2="794.66" y2="451.98" xlink:href="#Degradado_sin_nombre_5"/><linearGradient id="Degradado_sin_nombre_5-14" x1="693.74" y1="633.95" x2="711.35" y2="633.95" xlink:href="#Degradado_sin_nombre_5"/><linearGradient id="Degradado_sin_nombre_5-15" x1="685.85" y1="628.75" x2="717.43" y2="628.75" xlink:href="#Degradado_sin_nombre_5"/><linearGradient id="Degradado_sin_nombre_2" x1="464.47" y1="526.32" x2="695.34" y2="425.37" gradientUnits="userSpaceOnUse"><stop offset="0.22" stop-color="#0ac5c6"/><stop offset="0.96" stop-color="#0a8af3"/></linearGradient><linearGradient id="Degradado_sin_nombre_17" x1="471.82" y1="523.1" x2="702.7" y2="422.16" gradientUnits="userSpaceOnUse"><stop offset="0.22" stop-color="#0ac5c6"/><stop offset="0.96" stop-color="#00232a"/></linearGradient><linearGradient id="Degradado_sin_nombre_5-16" x1="815.75" y1="487.89" x2="956.19" y2="436.89" xlink:href="#Degradado_sin_nombre_5"/></defs><title>Logo Diego final</title><g class="cls-1"><g id="Capa_1" data-name="Capa 1"><path class="cls-2" d="M808.21,732.9A292.23,292.23,0,0,1,767.31,761c-.07,0-.18.11-.26.15s0,0-.07,0c-7.48,2.51-15.07,4.72-22.84,6.63a.06.06,0,0,1-.08,0c-6.66,1.74-13.44,3.21-20.3,4.46a13.62,13.62,0,0,1-1.65.3c-1.59.29-3.17.55-4.76.81-1.28.25-2.57.44-3.9.62-1.81.3-3.61.56-5.42.78a5.5,5.5,0,0,1-1.06.14c-2.18.3-4.39.56-6.56.81a26.6,26.6,0,0,1-2.66.26q-3.32.39-6.63.67c-.14,0-.29,0-.44,0a293.29,293.29,0,0,0,105.77-75.38c.81,1.11,1.59,2.25,2.36,3.36a38.82,38.82,0,0,1,4.87,8.8c1.36,3.69,2.21,7.55,3.75,11.16a8.92,8.92,0,0,1,.37,3.17,11.28,11.28,0,0,1,.3,2.62.34.34,0,0,1,.07.15A18.44,18.44,0,0,1,808.21,732.9Z"/><path class="cls-3" d="M735.52,662.28c-.3.74-.59,1.73-1,2.8a1,1,0,0,1,.07.33c-.14,1.25-.44,2.47-.66,3.72-.55,1.84,0,3.13.41,5a8.62,8.62,0,0,0,.51,1.66c.15.33.41.67.33,1a4.21,4.21,0,0,1,.3,1.4c.18,2.72-2,5.63-3.39,7.4-.55.7-.74,1.62-1.33,2.29,0,0,0,0,0,0,0,.26,0,.56,0,.92.08,2-1.25,3.58-2.69,4.79-1.73,1.66-3.42,2.33-5.34,3.65-1,.81-2.17,2.69-3.32,3.32a20.72,20.72,0,0,1-1.69,1.47c-4.57,1.92-9.62,2.58-14.26,4.35-2.58,1-4.79,1.8-6.81,3.39-3,2.13-4.54,3.5-7.67,4.27-4.23,1.11-8.36,2.4-12.49,3.8a293.4,293.4,0,0,0,61.09-61.2A47.21,47.21,0,0,1,735.52,662.28Z"/><path class="cls-4" d="M778.48,690.65a292.94,292.94,0,0,1-170.29,82.74h0a313.67,313.67,0,0,1-32.76-7.11,292.3,292.3,0,0,0,64.18-25c2.06,1.81,3.65,4.24,5.64,6.23a15.91,15.91,0,0,1,2.17,2.32,1.75,1.75,0,0,1,.3,1.18,114.23,114.23,0,0,1,11.56-4,14.67,14.67,0,0,0,4.06-2c1.88-1.11,3.28-2.69,5.23-3.65a20.82,20.82,0,0,1,5.27-1.07,17.59,17.59,0,0,0,4.34-2.32,50.8,50.8,0,0,0,4.61-2.88c1.14-1,2.39-2.24,3.65-3.24,2-1.54,4.27-2.13,6.33-3.57,3.54-2.17,6.71-4.94,10.39-6.93,3.1-1.58,6.75-3.13,9-4.2,4.64-1.62,8-2.5,12.64-3.72.55-.22,1.1-.48,1.65-.74,1.77-1.32,3.54-2.61,5.35-3.86,4.31-3.17,8.36-6.67,12.63-9.91s9.51-4.65,14.52-5.9c4.09-.81,8.07-2.06,12.23-2.58A26.63,26.63,0,0,1,778.48,690.65Z"/><path class="cls-5" d="M808.21,732.9A292.23,292.23,0,0,1,767.31,761c-.07,0-.18.11-.26.15s0,0-.07,0c-7.48,2.51-15.07,4.72-22.84,6.63a.06.06,0,0,1-.08,0c-6.66,1.74-13.44,3.21-20.3,4.46a13.62,13.62,0,0,1-1.65.3c-1.59.29-3.17.55-4.76.81-1.28.25-2.57.44-3.9.62-1.81.3-3.61.56-5.42.78a5.5,5.5,0,0,1-1.06.14c-2.18.3-4.39.56-6.56.81a26.6,26.6,0,0,1-2.66.26q-3.32.39-6.63.67c-.14,0-.29,0-.44,0a293.29,293.29,0,0,0,105.77-75.38c.81,1.11,1.59,2.25,2.36,3.36a38.82,38.82,0,0,1,4.87,8.8c1.36,3.69,2.21,7.55,3.75,11.16a8.92,8.92,0,0,1,.37,3.17,11.28,11.28,0,0,1,.3,2.62.34.34,0,0,1,.07.15A18.44,18.44,0,0,1,808.21,732.9Z"/><path class="cls-6" d="M722.25,614.53c-1.62.85-3.24,1.7-4.82,2.62l.33-.67c.48-.29,1-.55,1.51-.81,1-.48,1.92-1.14,2.91-1.54C722.37,614.16,722.44,614.46,722.25,614.53Z"/><path class="cls-7" d="M715.84,620.09c2.58-1.4,5.09-3,7.78-4.2a1.24,1.24,0,0,1,1,0,.28.28,0,0,1,.18.11l.19.18c0,.08,0,.08.07.11s.11.11.11.15c.92.55,1.29,1.14.85,2.1a24.73,24.73,0,0,1-3.5,2.36c-3.83,2.36-7.48,4.93-11.2,7.44C712.9,625.58,714.41,622.86,715.84,620.09Z"/><path class="cls-8" d="M742.3,624a1.26,1.26,0,0,1-.26,1c-.59.89-.59.89-1.25,1.85a43.11,43.11,0,0,0-3.06,3.79.37.37,0,0,1-.19.07c-4.31,5.53-8.8,10.91-13,16.58-.63.81-1.22,1.66-1.81,2.51,1.36-.26,2.8-.59,4.53-.85a9.93,9.93,0,0,1,7.15,1,7,7,0,0,1,3.17,3.72,5.34,5.34,0,0,1,.11,2.47c0,.19-.08.33-.11.48A293.76,293.76,0,0,1,575.4,766.28c-7.48-2.06-14.84-4.34-22.07-6.89A293.1,293.1,0,0,0,711,628.94q6.3-4,12.6-8c.48-.22,1-1,1.4-.88a.14.14,0,0,1,0,.26c-4.05,2.8-8.1,5.56-12.16,8.32,1-.66,2.07-1.28,3.1-2,4.71-3.06,9.39-6.41,14.73-8.4.59-.18.93.48,1.22.89a3.59,3.59,0,0,1,.88,2c-.11.37-.47.59-.73.81-2.25,1.62-4.53,3.24-6.71,5s-4.16,3.39-6.26,5.05c4.53-3.28,9.36-6.63,12.93-9.18.37-.18.77-.55,1.25-.4s.74.62,1,1a12.47,12.47,0,0,1,1.51,2.32c1.47-1,2.91-2.06,4.38-3.05a.72.72,0,0,1,.85,0A5.22,5.22,0,0,1,742.3,624Z"/><path class="cls-9" d="M735.52,662.28c-.3.74-.59,1.73-1,2.8a1,1,0,0,1,.07.33c-.14,1.25-.44,2.47-.66,3.72-.55,1.84,0,3.13.41,5a8.62,8.62,0,0,0,.51,1.66c.15.33.41.67.33,1a4.21,4.21,0,0,1,.3,1.4c.18,2.72-2,5.63-3.39,7.4-.55.7-.74,1.62-1.33,2.29,0,0,0,0,0,0,0,.26,0,.56,0,.92.08,2-1.25,3.58-2.69,4.79-1.73,1.66-3.42,2.33-5.34,3.65-1,.81-2.17,2.69-3.32,3.32a20.72,20.72,0,0,1-1.69,1.47c-4.57,1.92-9.62,2.58-14.26,4.35-2.58,1-4.79,1.8-6.81,3.39-3,2.13-4.54,3.5-7.67,4.27-4.23,1.11-8.36,2.4-12.49,3.8a293.4,293.4,0,0,0,61.09-61.2A47.21,47.21,0,0,1,735.52,662.28Z"/><path class="cls-10" d="M778.48,690.65a292.94,292.94,0,0,1-170.29,82.74h0a313.67,313.67,0,0,1-32.76-7.11,292.3,292.3,0,0,0,64.18-25c2.06,1.81,3.65,4.24,5.64,6.23a15.91,15.91,0,0,1,2.17,2.32,1.75,1.75,0,0,1,.3,1.18,114.23,114.23,0,0,1,11.56-4,14.67,14.67,0,0,0,4.06-2c1.88-1.11,3.28-2.69,5.23-3.65a20.82,20.82,0,0,1,5.27-1.07,17.59,17.59,0,0,0,4.34-2.32,50.8,50.8,0,0,0,4.61-2.88c1.14-1,2.39-2.24,3.65-3.24a25.76,25.76,0,0,1,6.33-3.57,41.05,41.05,0,0,0,10.39-6.93,65.78,65.78,0,0,1,9-4.2,64.91,64.91,0,0,1,6.33-2l6.31-1.71.83-.35.82-.39a22.75,22.75,0,0,0,5.35-3.86c2-2,7.88-6.3,12.63-9.91,4.17-3.17,9.51-4.65,14.52-5.9,4.09-.81,8.07-2.06,12.23-2.58A26.63,26.63,0,0,1,778.48,690.65Z"/><path class="cls-11" d="M611.29,504.85a59.69,59.69,0,0,1,4.31,4.83c-1.7-1.25-3.43-2.47-5.12-3.76C610.73,505.59,611,505.22,611.29,504.85Z"/><path class="cls-12" d="M605.69,498.88a12,12,0,0,1-2.55-8.51,24.05,24.05,0,0,1,2.66-9.8c.37-.73.77-1.47,1.18-2.17-.34-.74-.63-1.47-.89-2.21,0-.11-.07-.22-.11-.33h0a36,36,0,0,1-2.65,3.61,23,23,0,0,0-2.1,5.93,22,22,0,0,0,1.48,12.75c1.06,2.24,3.05,4.05,5.3,5.86.37-.48.77-.93,1.14-1.4C607.93,501.39,606.79,500.17,605.69,498.88Zm9.32-7.25a61.68,61.68,0,0,1-7.67-12.42,30.54,30.54,0,0,0-2.8,6.52c-1.36,4.68-1.17,10.28,2.44,13.78l2,2.14a.14.14,0,0,1,0-.19,45.68,45.68,0,0,0,6.86-8.77C615.56,492.33,615.27,492,615,491.63Zm.88-35.59c.3,8.1.74,14.51,2.88,21.7q.76,2.37,1.76,4.64c0-.15.11-.3.15-.44a60.44,60.44,0,0,0,.85-7.7A28.29,28.29,0,0,0,615.89,456Zm4.05,2.47a30.71,30.71,0,0,0-4.42-6.78,2.72,2.72,0,0,1-.11.25,2.79,2.79,0,0,1,.19,1.11,21.66,21.66,0,0,1,3.31,4.64c2.84,5,2.91,11,2.73,16.58-.18,2.4-.44,4.79-.85,7.15a33,33,0,0,0,1.33-7.89C622.23,466.91,622.27,463.74,619.94,458.51Zm5.09,7.73a46,46,0,0,1-2,14.55,49.43,49.43,0,0,0,2-7.33A51.16,51.16,0,0,0,625,466.24Zm1.91,59.5a31.88,31.88,0,0,0-3.27-5.16c-.26-.25-.52-.59-.78-.84-1.07-1.07-2.21-2.1-3.35-3.13a9.57,9.57,0,0,1,.33,1c.89.92,1.77,1.88,2.65,2.87a36.46,36.46,0,0,1,8.18,15,6.87,6.87,0,0,0,.26.84s0,.08,0,.08A32.29,32.29,0,0,0,626.94,525.74Zm6.67-19.49c-4.31-4.75-9-9.17-13-14.07a3.6,3.6,0,0,1-.22.4c4.2,5.49,9.8,10,14.41,15.15C634.39,507.21,634,506.73,633.61,506.25Zm1,43a6.88,6.88,0,0,1,.26,1,58.2,58.2,0,0,1,3.47-6.93,34.39,34.39,0,0,0,2.69-6.19C639.21,541.4,636.56,545.31,634.64,549.28Zm5.68-21.51a26.56,26.56,0,0,0-1.29-7.44v-.08a28.45,28.45,0,0,0-9.51-13.41c-3.24-3.5-7.48-7.29-11.12-11.2-2.25,3.24-4.64,6-6.78,8.81a54.63,54.63,0,0,1,4.53,5.67,45.66,45.66,0,0,1,10.46,10,16.92,16.92,0,0,1,2.84,6,1.64,1.64,0,0,1,.11.63s0,0-.11.07c-.22-.07-.3-1.14-.44-1.47a17.17,17.17,0,0,0-1.84-3.9,26.57,26.57,0,0,0-6-6.3c-1.14-.85-2.28-1.7-3.43-2.51l.34.55a54.86,54.86,0,0,1,8.54,9.66,29.28,29.28,0,0,1,2.14,3.42,35.82,35.82,0,0,1,3.87,15c.62,2.58,1.32,5.19,2,7.77,1.51-4.68,3.68-9.17,4.9-13.89a22.1,22.1,0,0,0,.85-5.12v-.11a1.22,1.22,0,0,0,0-.33A16.3,16.3,0,0,0,640.32,527.77Z"/><path class="cls-13" d="M789.16,539.23a290.92,290.92,0,0,1-51.54,117.41c0-.15.07-.29.11-.48a5.34,5.34,0,0,0-.11-2.47,7,7,0,0,0-3.17-3.72,9.93,9.93,0,0,0-7.15-1c-1.73.26-3.17.59-4.53.85.59-.85,1.18-1.7,1.81-2.51,4.16-5.67,8.65-11,13-16.58a.37.37,0,0,0,.19-.07,43.11,43.11,0,0,1,3.06-3.79c.66-1,.66-1,1.25-1.85a1.26,1.26,0,0,0,.26-1,5.22,5.22,0,0,0-1.33-1.36.72.72,0,0,0-.85,0c-1.47,1-2.91,2-4.38,3.05a12.47,12.47,0,0,0-1.51-2.32c-.26-.37-.52-.84-1-1s-.88.22-1.25.4c-3.57,2.55-8.4,5.9-12.93,9.18,2.1-1.66,4.2-3.36,6.26-5.05s4.46-3.39,6.71-5c.26-.22.62-.44.73-.81a3.59,3.59,0,0,0-.88-2c-.29-.41-.63-1.07-1.22-.89-5.34,2-10,5.34-14.73,8.4-1,.67-2.07,1.29-3.1,2,4.06-2.76,8.11-5.52,12.16-8.32a.14.14,0,0,0,0-.26c-.37-.11-.92.66-1.4.88q-6.3,4-12.6,8a5.16,5.16,0,0,0,.37-.63c3.72-2.51,7.37-5.08,11.2-7.44a24.73,24.73,0,0,0,3.5-2.36c.44-1,.07-1.55-.85-2.1,0,0,0-.07-.11-.15s0,0-.07-.11l-.19-.18a.28.28,0,0,0-.18-.11,1.24,1.24,0,0,0-1,0c-2.69,1.22-5.2,2.8-7.78,4.2.56-1,1.07-2,1.59-2.94,1.58-.92,3.2-1.77,4.82-2.62.19-.07.12-.37-.07-.4-1,.4-1.91,1.06-2.91,1.54-.52.26-1,.52-1.51.81a292,292,0,0,0,26.67-77.25c22.26-114-24.9-225.4-112.07-290.54,10-.88,20.12-1.36,30.39-1.36,4.32,0,8.59.07,12.83.26C763.7,312.57,811.6,424.61,789.16,539.23Z"/><path class="cls-14" d="M789.16,539.23a290.92,290.92,0,0,1-51.54,117.41c0-.15.07-.29.11-.48a5.34,5.34,0,0,0-.11-2.47,7,7,0,0,0-3.17-3.72,9.93,9.93,0,0,0-7.15-1c-1.73.26-3.17.59-4.53.85.59-.85,1.18-1.7,1.81-2.51,4.16-5.67,8.65-11,13-16.58a.37.37,0,0,0,.19-.07,43.11,43.11,0,0,1,3.06-3.79c.66-1,.66-1,1.25-1.85a1.26,1.26,0,0,0,.26-1,5.22,5.22,0,0,0-1.33-1.36.72.72,0,0,0-.85,0c-1.47,1-2.91,2-4.38,3.05a12.47,12.47,0,0,0-1.51-2.32c-.26-.37-.52-.84-1-1s-.88.22-1.25.4c-3.57,2.55-8.4,5.9-12.93,9.18,2.1-1.66,4.2-3.36,6.26-5.05s4.46-3.39,6.71-5c.26-.22.62-.44.73-.81a3.59,3.59,0,0,0-.88-2c-.29-.41-.63-1.07-1.22-.89-5.34,2-10,5.34-14.73,8.4-1,.67-2.07,1.29-3.1,2,4.06-2.76,8.11-5.52,12.16-8.32a.14.14,0,0,0,0-.26c-.37-.11-.92.66-1.4.88q-6.3,4-12.6,8a5.16,5.16,0,0,0,.37-.63c3.72-2.51,7.37-5.08,11.2-7.44a24.73,24.73,0,0,0,3.5-2.36c.44-1,.07-1.55-.85-2.1,0,0,0-.07-.11-.15s0,0-.07-.11l-.19-.18a.28.28,0,0,0-.18-.11,1.24,1.24,0,0,0-1,0c-2.69,1.22-5.2,2.8-7.78,4.2.56-1,1.07-2,1.59-2.94,1.58-.92,3.2-1.77,4.82-2.62.19-.07.12-.37-.07-.4-1,.4-1.91,1.06-2.91,1.54-.52.26-1,.52-1.51.81a292,292,0,0,0,26.67-77.25c22.26-114-24.9-225.4-112.07-290.54,10-.88,20.12-1.36,30.39-1.36,4.32,0,8.59.07,12.83.26C763.7,312.57,811.6,424.61,789.16,539.23Z"/><path class="cls-15" d="M693.74,639.58c4.86-3,9.84-5.93,14.55-9.21,1-.66,2-1.36,3.06-2.06a5.16,5.16,0,0,1-.37.63q-7.29,4.69-14.7,9.21Z"/><path class="cls-16" d="M715.48,620.32c-10.39,5.93-20.05,13-29.63,20a162.53,162.53,0,0,1,31.58-23.21c-.52,1-1,2-1.59,2.94Z"/><path class="cls-17" d="M639.91,541c6.12-11.57,5.49-19.86-1.69-30.58-4.79-7.51-12-12.78-16.47-20.37l.44-.89a217.68,217.68,0,0,0,16.58,19.9.23.23,0,0,0,.37-.26c-2.4-2.69-4.79-5.34-7-8.07A91.62,91.62,0,0,1,623,487.5c6.11-12.89,8.62-28.48,2.32-39.79a29.34,29.34,0,0,1,2.58,2.17,23.34,23.34,0,0,1,1.4,3.25,22.62,22.62,0,0,1,1,9.54,30.62,30.62,0,0,1-1.06,5.12.26.26,0,0,0,.14.37.3.3,0,0,0,.3-.19,29.81,29.81,0,0,0,1.58-7.77,22.45,22.45,0,0,0-.18-6.08c.14.3.26.59.4.89,1.66,3.94,1.11,7.88-.07,12.15-1.55,4.68-4,9.95-3,15a16.41,16.41,0,0,0,3.46,7.77,11.47,11.47,0,0,0,3.8,2.36.44.44,0,0,0,.22.07c.07,0,.11-.11.07-.14a12.32,12.32,0,0,1-2.1-1c-3.43-2.61-4.75-7.15-5-10.94-.33-3.21.92-6.56,1.91-9.21,1.59-4.24,3-8.73,2.69-13.3a16.13,16.13,0,0,0-3.2-8.18c-.26-.37-.52-.66-.74-1a34,34,0,0,0-2.58-5.2c-.26-.37-.48-.7-.7-1a27.89,27.89,0,0,1,5.16,8.47c2.17,1.48-3.32-7-3.69-7.51-.77-1-1.4-1.92-2-2.77a29.26,29.26,0,0,1,3.24,4.06c2.91,3.83,4.9,7.62,5.45,12.26.92,4.94-.11,9.66-1.43,14.45-.08.22.29.25.33.07,1.1-4.24,2.28-8.51,1.95-12.89-.29-6.45-2.39-11-6-16a58.4,58.4,0,0,0-4.46-5.79,30.18,30.18,0,0,1,7.44,7.78c1.69,3,3.21,6.26,3,9.83a.16.16,0,0,0,.22.19c.44-1.81-.22-3.76-.55-5.57-2.25-9.06-8.18-15-15.33-20.41.74.41,1.51.85,2.32,1.37,3.8,2.39,8,5.71,9.69,10.24a.29.29,0,0,0,.44.15c.3-.45-.55-1.48-.81-2a35.61,35.61,0,0,0-9-10.32,18,18,0,0,1,2.8,1.44,20.23,20.23,0,0,1,5.9,6,.08.08,0,0,0,.14,0,17.15,17.15,0,0,0-1.76-2.62c-2.55-3.35-5.86-6-8.85-8.92-.22-.22-.4-.47-.62-.73a.61.61,0,0,1,.18.11,42.16,42.16,0,0,1,6.63,5.6.25.25,0,0,0,.44-.08c0-.44-.55-.73-.81-1.06-2.68-2.36-5.52-5.53-6.18-8-.26-.59-.48-1.18-.7-1.81a11.16,11.16,0,0,0-.26-1.8,17.68,17.68,0,0,0-.7-1.88c-.67-2.91-1.26-5.68-2.77-6.89v0c-.47-1.62-.81-3.28-1.14-4.93a2.4,2.4,0,0,0,1.22-1.11l0,0v0a4.83,4.83,0,0,0,.56-1.55,10.91,10.91,0,0,0,.26-1.62v-.11l0,0v-.07a8.19,8.19,0,0,0-1.36-5.53c-1.29-2.36-2.76-4.6-4.09-6.93a41.79,41.79,0,0,0-4-6.3c-8.8-10.68-20-20.11-33.12-25.31a42.07,42.07,0,0,0-9.54-2.87c-.88-.18-1.77-.37-2.65-.52-1-.33-2.07-.66-3.1-.92a54.13,54.13,0,0,0-46.68,9.1c-7,3-14,6.27-20.18,10.76a5.73,5.73,0,0,0-1.92,2.06c-.37.63-.26,1.51-.52,2.21-.14.52-.25,1.15-.44,1.77a44.88,44.88,0,0,0-3.17,3.95,64,64,0,0,0-8.43,12.37c-.37,0-.7,0-1,0-.15,0-.29,0-.85.07a1,1,0,0,0-.62.15.64.64,0,0,0-.3.22l-.11.11c-.7.52-.55.55-1,1.33a43.49,43.49,0,0,0-3.79,13.74c-.89,5.23-1.48,11.35-2,15.66.19,1.62.56,2.83.59,4.16a2.6,2.6,0,0,1-.29.88c-.59,1.48-1.66,2.69-2.25,4.17a23.09,23.09,0,0,0-1.91,5.82c-.08.18.07.33.22.4a16.29,16.29,0,0,0-.26,3c.51,9.07.85,24.95,10.24,29.33a8.21,8.21,0,0,0,.88.29c.12,1.29.23,2.73.3,3.28a1.62,1.62,0,0,0,.22.63,2,2,0,0,0,.18.26c.08.07.12.15.19.22a1.44,1.44,0,0,0,.37.26.11.11,0,0,0,.07,0,1.21,1.21,0,0,0,.52.22c.14,5.57.59,11.17.51,16.73v0c-.26.44-.51.92-.77,1.4a6.36,6.36,0,0,1-.41.7c-.22.4-.44.77-.66,1.18s-.33.62-.52.92-.44.7-.62,1-.44.7-.66,1-.41.63-.63.92-.48.74-.7,1.07-.41.59-.63.85-.55.73-.84,1.07a7,7,0,0,1-.59.73c-.34.41-.67.78-1,1.15-.18.18-.33.36-.51.55a21.55,21.55,0,0,1-1.63,1.55c-.4.22-.81.62-1.25.84-5.19,3.5-10.54,6.74-16,9.84l-1.8.88a11.43,11.43,0,0,1-2.36.52c-1.36.33-2.25-.33-3.94-.15-2.55.22-3.13,1.25-4.5,1.66a24.82,24.82,0,0,0-3.61,1.14c-2.06,1.22-3.76,3-5.93,3.94-4.16,1.88-8.69,2.66-13.12,4.17-2.87,1-5.89,1.43-8.62,2.76-5.23,3.13-10.53,6.37-15.1,10.46-4.13,4.24-7,9.47-10.13,14.41-.45.66-1,1.4-.7,2.21a2.38,2.38,0,0,0,.44.66,2.6,2.6,0,0,0-.81,1c-1.14,4-1.81,10.17-2.95,15-.48,2.21-1,4.39-1.55,6.56a237.18,237.18,0,0,1-10.53-70.11c0-137.35,117.3-250.34,267.69-263.9,87.17,65.14,134.33,176.58,112.07,290.54a292,292,0,0,1-26.67,77.25c-13.63,7-26.16,16.55-37.43,26l-3.5,3c11.6-11.75,24.13-22.36,38.79-30,1.73-2.72-11.23,5.75-12.3,6.38-15.14,9.8-27.71,21.51-41,33.34-5.16,4.57-10.35,9-15.58,14.11-1.48-1-3.06-2-4.64-2.88-.26-7.47-.59-15-.78-22.47a50.62,50.62,0,0,0,4-4.27c2.29-2.4,5.34-3.8,8.14-5.27a32,32,0,0,0,6.75-5s0,0,.11,0a.69.69,0,0,0,.44-.58c.07,0,.07-.12.18-.34a.75.75,0,0,0-.18-.7,21.88,21.88,0,0,0-1.22-4.34c-2-5.35-3.9-10.1-6.11-15-1.26-2.84-2.47-5.71-3.69-8.55q-4.76-13.92-8.88-28H641s0,0,0,0a1.68,1.68,0,0,1-.18-.74h-.22c-2-6.81-3.84-13.7-5.64-20.56C636.19,547.37,638.44,543.91,639.91,541Z"/><path class="cls-18" d="M639.91,541c6.12-11.57,5.49-19.86-1.69-30.58-4.79-7.51-12-12.78-16.47-20.37l.44-.89a217.68,217.68,0,0,0,16.58,19.9.23.23,0,0,0,.37-.26c-2.4-2.69-4.79-5.34-7-8.07A91.62,91.62,0,0,1,623,487.5c6.11-12.89,8.62-28.48,2.32-39.79a29.34,29.34,0,0,1,2.58,2.17,23.34,23.34,0,0,1,1.4,3.25,22.62,22.62,0,0,1,1,9.54,30.62,30.62,0,0,1-1.06,5.12.26.26,0,0,0,.14.37.3.3,0,0,0,.3-.19,29.81,29.81,0,0,0,1.58-7.77,22.45,22.45,0,0,0-.18-6.08c.14.3.26.59.4.89,1.66,3.94,1.11,7.88-.07,12.15-1.55,4.68-4,9.95-3,15a16.41,16.41,0,0,0,3.46,7.77,11.47,11.47,0,0,0,3.8,2.36.44.44,0,0,0,.22.07c.07,0,.11-.11.07-.14a12.32,12.32,0,0,1-2.1-1c-3.43-2.61-4.75-7.15-5-10.94-.33-3.21.92-6.56,1.91-9.21,1.59-4.24,3-8.73,2.69-13.3a16.13,16.13,0,0,0-3.2-8.18c-.26-.37-.52-.66-.74-1a34,34,0,0,0-2.58-5.2c-.26-.37-.48-.7-.7-1a27.89,27.89,0,0,1,5.16,8.47c2.17,1.48-3.32-7-3.69-7.51-.77-1-1.4-1.92-2-2.77a29.26,29.26,0,0,1,3.24,4.06c2.91,3.83,4.9,7.62,5.45,12.26.92,4.94-.11,9.66-1.43,14.45-.08.22.29.25.33.07,1.1-4.24,2.28-8.51,1.95-12.89-.29-6.45-2.39-11-6-16a58.4,58.4,0,0,0-4.46-5.79,30.18,30.18,0,0,1,7.44,7.78c1.69,3,3.21,6.26,3,9.83a.16.16,0,0,0,.22.19c.44-1.81-.22-3.76-.55-5.57-2.25-9.06-8.18-15-15.33-20.41.74.41,1.51.85,2.32,1.37,3.8,2.39,8,5.71,9.69,10.24a.29.29,0,0,0,.44.15c.3-.45-.55-1.48-.81-2a35.61,35.61,0,0,0-9-10.32,18,18,0,0,1,2.8,1.44,20.23,20.23,0,0,1,5.9,6,.08.08,0,0,0,.14,0,17.15,17.15,0,0,0-1.76-2.62c-2.55-3.35-5.86-6-8.85-8.92-.22-.22-.4-.47-.62-.73a.61.61,0,0,1,.18.11,42.16,42.16,0,0,1,6.63,5.6.25.25,0,0,0,.44-.08c0-.44-.55-.73-.81-1.06-2.68-2.36-5.52-5.53-6.18-8-.26-.59-.48-1.18-.7-1.81a11.16,11.16,0,0,0-.26-1.8,17.68,17.68,0,0,0-.7-1.88c-.67-2.91-1.26-5.68-2.77-6.89v0c-.47-1.62-.81-3.28-1.14-4.93a2.4,2.4,0,0,0,1.22-1.11l0,0v0a4.83,4.83,0,0,0,.56-1.55,10.91,10.91,0,0,0,.26-1.62v-.11l0,0v-.07a8.19,8.19,0,0,0-1.36-5.53c-1.29-2.36-2.76-4.6-4.09-6.93a41.79,41.79,0,0,0-4-6.3c-8.8-10.68-20-20.11-33.12-25.31a42.07,42.07,0,0,0-9.54-2.87c-.88-.18-1.77-.37-2.65-.52-1-.33-2.07-.66-3.1-.92a54.13,54.13,0,0,0-46.68,9.1c-7,3-14,6.27-20.18,10.76a5.73,5.73,0,0,0-1.92,2.06c-.37.63-.26,1.51-.52,2.21-.14.52-.25,1.15-.44,1.77a44.88,44.88,0,0,0-3.17,3.95,64,64,0,0,0-8.43,12.37c-.37,0-.7,0-1,0-.15,0-.29,0-.85.07a1,1,0,0,0-.62.15.64.64,0,0,0-.3.22l-.11.11c-.7.52-.55.55-1,1.33a43.49,43.49,0,0,0-3.79,13.74c-.89,5.23-1.48,11.35-2,15.66.19,1.62.56,2.83.59,4.16a2.6,2.6,0,0,1-.29.88c-.59,1.48-1.66,2.69-2.25,4.17a23.09,23.09,0,0,0-1.91,5.82c-.08.18.07.33.22.4a16.29,16.29,0,0,0-.26,3c.51,9.07.85,24.95,10.24,29.33a8.21,8.21,0,0,0,.88.29c.12,1.29.23,2.73.3,3.28a1.62,1.62,0,0,0,.22.63,2,2,0,0,0,.18.26c.08.07.12.15.19.22a1.44,1.44,0,0,0,.37.26.11.11,0,0,0,.07,0,1.21,1.21,0,0,0,.52.22c.14,5.57.59,11.17.51,16.73v0c-.26.44-.51.92-.77,1.4a6.36,6.36,0,0,1-.41.7c-.22.4-.44.77-.66,1.18s-.33.62-.52.92-.44.7-.62,1-.44.7-.66,1-.41.63-.63.92-.48.74-.7,1.07-.41.59-.63.85-.55.73-.84,1.07a7,7,0,0,1-.59.73c-.34.41-.67.78-1,1.15-.18.18-.33.36-.51.55a21.55,21.55,0,0,1-1.63,1.55c-.4.22-.81.62-1.25.84-5.19,3.5-10.54,6.74-16,9.84l-1.8.88a11.43,11.43,0,0,1-2.36.52c-1.36.33-2.25-.33-3.94-.15-2.55.22-3.13,1.25-4.5,1.66a24.82,24.82,0,0,0-3.61,1.14c-2.06,1.22-3.76,3-5.93,3.94-4.16,1.88-8.69,2.66-13.12,4.17-2.87,1-5.89,1.43-8.62,2.76-5.23,3.13-10.53,6.37-15.1,10.46-4.13,4.24-7,9.47-10.13,14.41-.45.66-1,1.4-.7,2.21a2.38,2.38,0,0,0,.44.66,2.6,2.6,0,0,0-.81,1c-1.14,4-1.81,10.17-2.95,15-.48,2.21-1,4.39-1.55,6.56a237.18,237.18,0,0,1-10.53-70.11c0-137.35,117.3-250.34,267.69-263.9,87.17,65.14,134.33,176.58,112.07,290.54a292,292,0,0,1-26.67,77.25c-13.63,7-26.16,16.55-37.43,26l-3.5,3c11.6-11.75,24.13-22.36,38.79-30,1.73-2.72-11.23,5.75-12.3,6.38-15.14,9.8-27.71,21.51-41,33.34-5.16,4.57-10.35,9-15.58,14.11-1.48-1-3.06-2-4.64-2.88-.26-7.47-.59-15-.78-22.47a50.62,50.62,0,0,0,4-4.27c2.29-2.4,5.34-3.8,8.14-5.27a32,32,0,0,0,6.75-5s0,0,.11,0a.69.69,0,0,0,.44-.58c.07,0,.07-.12.18-.34a.75.75,0,0,0-.18-.7,21.88,21.88,0,0,0-1.22-4.34c-2-5.35-3.9-10.1-6.11-15-1.26-2.84-2.47-5.71-3.69-8.55q-4.76-13.92-8.88-28H641s0,0,0,0a1.68,1.68,0,0,1-.18-.74h-.22c-2-6.81-3.84-13.7-5.64-20.56C636.19,547.37,638.44,543.91,639.91,541Z"/><path class="cls-19" d="M909.85,562.84A291.28,291.28,0,0,1,808.21,732.9a18.44,18.44,0,0,0,0-2.35.34.34,0,0,0-.07-.15,11.28,11.28,0,0,0-.3-2.62,8.92,8.92,0,0,0-.37-3.17c-1.54-3.61-2.39-7.47-3.75-11.16a38.82,38.82,0,0,0-4.87-8.8c-.77-1.11-1.55-2.25-2.36-3.36A292.66,292.66,0,0,0,859.6,427.45v-.08s0-.11,0-.14a293.57,293.57,0,0,0-93.65-163.51,316.12,316.12,0,0,1,44.58,18.53A292.61,292.61,0,0,1,909.85,562.84Z"/></g></g></svg>