<svg xmlns="http://www.w3.org/2000/svg" xmlns:xlink="http://www.w3.org/1999/xlink" viewBox="0 0 1280 1024"><defs><style>.cls-1{isolation:isolate;}.cls-2{fill:url(#Degradado_sin_nombre_63);}.cls-3{fill:url(#Degradado_sin_nombre_5);}.cls-4{fill:url(#Degradado_sin_nombre_5-2);}.cls-5{fill:url(#Degradado_sin_nombre_5-3);}.cls-6{fill:url(#Degradado_sin_nombre_5-4);}.cls-7{fill:url(#Degradado_sin_nombre_5-5);}.cls-8{fill:url(#Degradado_sin_nombre_5-6);}.cls-9{fill:url(#Degradado_sin_nombre_5-7);}.cls-10{fill:url(#Degradado_sin_nombre_5-8);}.cls-11{fill:url(#Degradado_sin_nombre_5-9);}.cls-12{fill:url(#Degradado_sin_nombre_5-10);}.cls-13{fill:url(#Degradado_sin_nombre_5-11);}.cls-14,.cls-15{fill:url(#Degradado_sin_nombre_5-12);}.cls-15{opacity:0.51;}.cls-15,.cls-19{mix-blend-mode:multiply;}.cls-16{fill:url(#Degradado_sin_nombre_5-14);}.cls-17{fill:url(#Degradado_sin_nombre_5-15);}.cls-18{fill:url(#Degradado_sin_nombre_2);}.cls-19{opacity:0.33;fill:url(#Degradado_sin_nombre_17);}.cls-20{fill:url(#Degradado_sin_nombre_5-16);}</style><linearGradient id="Degradado_sin_nombre_63" x1="384" y1="627.41" x2="895.58" y2="627.41" gradientUnits="userSpaceOnUse"><stop offset="0.09" stop-color="#0ac5c6"/><stop offset="0.88" stop-color="#005cbf"/></linearGradient><linearGradient id="Degradado_sin_nombre_5" x1="700.74" y1="578.89" x2="716.66" y2="501.21" gradientUnits="userSpaceOnUse"><stop offset="0" stop-color="#0ac5c6"/><stop offset="1" stop-color="#0a8af3"/></linearGradient><linearGradient id="Degradado_sin_nombre_5-2" x1="671.4" y1="489.34" x2="692.11" y2="519.27" xlink:href="#Degradado_sin_nombre_5"/><linearGradient id="Degradado_sin_nombre_5-3" x1="637.3" y1="492.56" x2="683.32" y2="559.08" xlink:href="#Degradado_sin_nombre_5"/><linearGradient id="Degradado_sin_nombre_5-4" x1="694.34" y1="521.85" x2="721.1" y2="560.54" xlink:href="#Degradado_sin_nombre_5"/><linearGradient id="Degradado_sin_nombre_5-5" x1="689.39" y1="460.17" x2="689.17" y2="458.74" xlink:href="#Degradado_sin_nombre_5"/><linearGradient id="Degradado_sin_nombre_5-6" x1="689.07" y1="467.05" x2="688.06" y2="460.46" xlink:href="#Degradado_sin_nombre_5"/><linearGradient id="Degradado_sin_nombre_5-7" x1="586.11" y1="506.8" x2="703.17" y2="506.8" xlink:href="#Degradado_sin_nombre_5"/><linearGradient id="Degradado_sin_nombre_5-8" x1="684.21" y1="522.43" x2="679.25" y2="490.16" xlink:href="#Degradado_sin_nombre_5"/><linearGradient id="Degradado_sin_nombre_5-9" x1="666.4" y1="553.54" x2="660.85" y2="517.38" xlink:href="#Degradado_sin_nombre_5"/><linearGradient id="Degradado_sin_nombre_5-10" x1="621.5" y1="392.22" x2="624.68" y2="392.22" xlink:href="#Degradado_sin_nombre_5"/><linearGradient id="Degradado_sin_nombre_5-11" x1="615.51" y1="388.36" x2="640.44" y2="388.36" xlink:href="#Degradado_sin_nombre_5"/><linearGradient id="Degradado_sin_nombre_5-12" x1="635.06" y1="357.99" x2="735.58" y2="357.99" xlink:href="#Degradado_sin_nombre_5"/><linearGradient id="Degradado_sin_nombre_5-14" x1="673.07" y1="470.68" x2="683.98" y2="470.68" xlink:href="#Degradado_sin_nombre_5"/><linearGradient id="Degradado_sin_nombre_5-15" x1="668.19" y1="467.47" x2="687.74" y2="467.47" xlink:href="#Degradado_sin_nombre_5"/><linearGradient id="Degradado_sin_nombre_2" x1="531.08" y1="404.03" x2="674.07" y2="341.5" gradientUnits="userSpaceOnUse"><stop offset="0.22" stop-color="#0ac5c6"/><stop offset="0.96" stop-color="#0a8af3"/></linearGradient><linearGradient id="Degradado_sin_nombre_17" x1="535.63" y1="402.03" x2="678.62" y2="339.51" gradientUnits="userSpaceOnUse"><stop offset="0.22" stop-color="#0ac5c6"/><stop offset="0.96" stop-color="#00232a"/></linearGradient><linearGradient id="Degradado_sin_nombre_5-16" x1="748.64" y1="380.23" x2="835.62" y2="348.64" xlink:href="#Degradado_sin_nombre_5"/></defs><title>Logo Diego final</title><g class="cls-1"><g id="Capa_1" data-name="Capa 1"><path d="M129.76,752.05a1.64,1.64,0,0,1-1.32-.51,2.17,2.17,0,0,1-.44-1.45V715.6a1.85,1.85,0,0,1,.51-1.42,2.07,2.07,0,0,1,1.45-.49h17a1.7,1.7,0,0,1,1.9,1.91,2,2,0,0,1-.5,1.45,1.87,1.87,0,0,1-1.4.51H131.86v13h11.85a1.92,1.92,0,0,1,1.42.47,1.79,1.79,0,0,1,.48,1.34,1.73,1.73,0,0,1-.48,1.33,2,2,0,0,1-1.42.46H131.86v14.07H147a1.9,1.9,0,0,1,1.42.5,2.34,2.34,0,0,1,0,2.84,1.9,1.9,0,0,1-1.42.49Z"/><path d="M171.39,724.75l-.29-1.14v-9.24a1.82,1.82,0,1,1,3.63,0v34.55a1.9,1.9,0,0,1-.37,1.3A2.9,2.9,0,0,1,173,751a30.66,30.66,0,0,1-4.15,1.14,23.32,23.32,0,0,1-4.51.41,10.75,10.75,0,0,1-5.25-1.3,9.93,9.93,0,0,1-3.78-3.58,9.69,9.69,0,0,1-1.39-5.1v-9.27a9.66,9.66,0,0,1,4.88-8.47,10.19,10.19,0,0,1,5.22-1.33A21.69,21.69,0,0,1,171.39,724.75Zm-12.93,21.13a6.31,6.31,0,0,0,2.46,2.29,7.1,7.1,0,0,0,3.45.84,15.83,15.83,0,0,0,3.38-.31c.94-.2,1.7-.4,2.27-.58l1.08-.37V728.27c-.1,0-.45-.17-1.07-.38a15.42,15.42,0,0,0-2.47-.6,17.69,17.69,0,0,0-3.19-.28,7.2,7.2,0,0,0-3.45.82,6.24,6.24,0,0,0-2.46,2.26,6,6,0,0,0-.91,3.27v9.24A6.07,6.07,0,0,0,158.46,745.88Z"/><path d="M189.22,751.28a9.08,9.08,0,0,1-3.59-3.47,9.69,9.69,0,0,1-1.31-5V725.69a1.89,1.89,0,0,1,.47-1.36,1.79,1.79,0,0,1,1.35-.48,1.7,1.7,0,0,1,1.3.47,1.9,1.9,0,0,1,.45,1.37v17.06a6,6,0,0,0,.91,3.25,6.17,6.17,0,0,0,2.47,2.22,7.54,7.54,0,0,0,3.47.79,16.59,16.59,0,0,0,3.61-.34,21.2,21.2,0,0,0,3.15-.95v-22a1.9,1.9,0,0,1,.44-1.37,1.6,1.6,0,0,1,1.25-.47,1.87,1.87,0,0,1,1.39.47,1.79,1.79,0,0,1,.49,1.37v23.47a1.92,1.92,0,0,1-.22.92,1.34,1.34,0,0,1-.63.57,24.71,24.71,0,0,1-9.8,1.87A10.77,10.77,0,0,1,189.22,751.28Z"/><path d="M214.77,728.35a9.79,9.79,0,0,1,3.76-3.57,11,11,0,0,1,5.35-1.31,12,12,0,0,1,4.34.7,14.87,14.87,0,0,1,3.27,1.72,1.61,1.61,0,0,1,.7,1.32,1.78,1.78,0,0,1-.42,1.16,1.26,1.26,0,0,1-1,.51,2.75,2.75,0,0,1-.58,0,2,2,0,0,1-.41-.1l-.32-.1a12.25,12.25,0,0,0-2.53-1.2,10.07,10.07,0,0,0-3.24-.47,7.09,7.09,0,0,0-3.39.83,6.22,6.22,0,0,0-2.44,2.3,6.06,6.06,0,0,0-.89,3.25v9.24a6.11,6.11,0,0,0,.86,3.19,6.28,6.28,0,0,0,2.41,2.33,7.06,7.06,0,0,0,3.45.86,9.73,9.73,0,0,0,3.22-.47,13,13,0,0,0,2.55-1.23l.61-.17a2.51,2.51,0,0,1,.7,0,1.36,1.36,0,0,1,1,.54,1.78,1.78,0,0,1,.42,1.16,1.58,1.58,0,0,1-.7,1.31,16.66,16.66,0,0,1-3.32,1.76,12.54,12.54,0,0,1-4.41.64,10.7,10.7,0,0,1-5.35-1.33,9.74,9.74,0,0,1-3.69-3.57,9.47,9.47,0,0,1-1.31-4.9V733.3A9.36,9.36,0,0,1,214.77,728.35Z"/><path d="M253,724.64a7.73,7.73,0,0,1,3.27,3.33,11.18,11.18,0,0,1,1.11,5.15v15.57a2.71,2.71,0,0,1-.29,1.43,2.94,2.94,0,0,1-1.35.85,19.48,19.48,0,0,1-4.07,1.13,28.91,28.91,0,0,1-5,.42,11.43,11.43,0,0,1-5-1,7.58,7.58,0,0,1-3.26-2.94,8.76,8.76,0,0,1-1.14-4.55v-.12c0-2.85.84-5,2.53-6.41a10.51,10.51,0,0,1,7-2.13,21.81,21.81,0,0,1,7,1.08v-3.1a6.3,6.3,0,0,0-1.65-4.7,6.18,6.18,0,0,0-4.52-1.62,14.11,14.11,0,0,0-5.5,1.11l-.49.13a2.14,2.14,0,0,1-.65.1,1.26,1.26,0,0,1-1-.52,1.78,1.78,0,0,1-.43-1.17,1.86,1.86,0,0,1,.25-1,1.78,1.78,0,0,1,.86-.67,16.45,16.45,0,0,1,3.37-1.11,17.63,17.63,0,0,1,3.8-.41A10.63,10.63,0,0,1,253,724.64Zm.81,23.55V739.3a20,20,0,0,0-3.1-.71,23.57,23.57,0,0,0-3.45-.26,7.5,7.5,0,0,0-4.73,1.32,4.78,4.78,0,0,0-1.68,4v.05a5.46,5.46,0,0,0,1.64,4.22,6.55,6.55,0,0,0,4.62,1.52A18.83,18.83,0,0,0,253.81,748.19Z"/><path d="M269.68,714.72a1.87,1.87,0,0,1,.46,1.35V724h6.17a1.51,1.51,0,0,1,1.73,1.69,1.75,1.75,0,0,1-.44,1.27,1.68,1.68,0,0,1-1.29.46h-6.17v16.68q0,4.93,4.09,4.94a18.38,18.38,0,0,0,3-.32l.79-.12a2.07,2.07,0,0,1,.41,0,1.48,1.48,0,0,1,1.15.47,1.81,1.81,0,0,1,.43,1.26,1.52,1.52,0,0,1-.47,1.18,2.63,2.63,0,0,1-1.44.57c-.89.18-1.64.31-2.25.38a14.22,14.22,0,0,1-1.87.12,7.19,7.19,0,0,1-5.59-2q-1.87-2-1.87-6.08v-17h-1.82a1.65,1.65,0,0,1-1.17-.47,1.78,1.78,0,0,1-.41-1.26,1.82,1.82,0,0,1,.41-1.26,1.55,1.55,0,0,1,1.17-.43h1.82v-7.9a1.83,1.83,0,0,1,.46-1.35,1.86,1.86,0,0,1,1.35-.47A1.77,1.77,0,0,1,269.68,714.72Z"/><path d="M291.55,725.78v24.57a1.87,1.87,0,0,1-.45,1.35,1.78,1.78,0,0,1-1.33.47,1.64,1.64,0,0,1-1.82-1.82v-23h-3.16a1.53,1.53,0,0,1-1.69-1.73,1.49,1.49,0,0,1,1.69-1.69h5c1,0,1.62.44,1.75,1.34a2.08,2.08,0,0,1,0,.44Zm-4.5-7.89a2.13,2.13,0,0,1-.68-1.59,2.21,2.21,0,0,1,.68-1.61,2.28,2.28,0,0,1,3.23,0,2.23,2.23,0,0,1,.66,1.61,2.15,2.15,0,0,1-.66,1.59,2.31,2.31,0,0,1-3.23,0Z"/><path d="M299.89,733.27a9.27,9.27,0,0,1,1.38-5,9.87,9.87,0,0,1,3.74-3.54,11.23,11.23,0,0,1,10.49,0,10.06,10.06,0,0,1,3.78,3.54,9.27,9.27,0,0,1,1.38,5v9.51a9.22,9.22,0,0,1-1.38,4.93,9.93,9.93,0,0,1-3.78,3.52,11.31,11.31,0,0,1-10.49,0,9.75,9.75,0,0,1-3.74-3.52,9.22,9.22,0,0,1-1.38-4.93Zm3.6,9.36a6.16,6.16,0,0,0,3.33,5.56,7.52,7.52,0,0,0,6.87,0,6.39,6.39,0,0,0,2.47-2.28,6,6,0,0,0,.91-3.26v-9.24a6.1,6.1,0,0,0-.91-3.27,6.54,6.54,0,0,0-2.47-2.28,7.52,7.52,0,0,0-6.87,0,6.45,6.45,0,0,0-2.44,2.28,6.17,6.17,0,0,0-.89,3.27Z"/><path d="M345.12,724.67a8.34,8.34,0,0,1,3.41,3.45,11.06,11.06,0,0,1,1.22,5.32V750.3a2,2,0,0,1-.47,1.39,1.84,1.84,0,0,1-1.38.48,1.71,1.71,0,0,1-1.3-.48,2,2,0,0,1-.45-1.39V733.65a6.63,6.63,0,0,0-1.74-4.95,6.49,6.49,0,0,0-4.73-1.69,19.84,19.84,0,0,0-7.11,1.26v22a2,2,0,0,1-.44,1.39,1.64,1.64,0,0,1-1.28.48A1.69,1.69,0,0,1,329,750.3V726.83a1.79,1.79,0,0,1,.24-.91,1.33,1.33,0,0,1,.64-.58A25.67,25.67,0,0,1,340,723.47,10.47,10.47,0,0,1,345.12,724.67Z"/><path d="M372.55,724.64a7.78,7.78,0,0,1,3.27,3.33,11.18,11.18,0,0,1,1.11,5.15v15.57a2.6,2.6,0,0,1-.3,1.43,2.84,2.84,0,0,1-1.34.85,19.48,19.48,0,0,1-4.07,1.13,29,29,0,0,1-5,.42,11.4,11.4,0,0,1-5-1,7.58,7.58,0,0,1-3.26-2.94,8.76,8.76,0,0,1-1.14-4.55v-.12c0-2.85.84-5,2.53-6.41a10.51,10.51,0,0,1,7-2.13,21.81,21.81,0,0,1,7,1.08v-3.1a6.3,6.3,0,0,0-1.65-4.7,6.2,6.2,0,0,0-4.53-1.62,14.1,14.1,0,0,0-5.49,1.11l-.49.13a2.16,2.16,0,0,1-.66.1,1.24,1.24,0,0,1-1-.52,1.78,1.78,0,0,1-.43-1.17,1.86,1.86,0,0,1,.25-1,1.78,1.78,0,0,1,.86-.67,16.45,16.45,0,0,1,3.37-1.11,17.56,17.56,0,0,1,3.8-.41A10.63,10.63,0,0,1,372.55,724.64Zm.81,23.55V739.3a20,20,0,0,0-3.1-.71,23.7,23.7,0,0,0-3.46-.26,7.49,7.49,0,0,0-4.72,1.32,4.78,4.78,0,0,0-1.68,4v.05a5.46,5.46,0,0,0,1.64,4.22,6.55,6.55,0,0,0,4.62,1.52A18.88,18.88,0,0,0,373.36,748.19Z"/><path d="M390.39,714.49v35.86a1.91,1.91,0,0,1-3.16,1.35,1.79,1.79,0,0,1-.47-1.35V716.24H384.3a1.73,1.73,0,0,1-1.33-.47,1.86,1.86,0,0,1-.45-1.34,1.58,1.58,0,0,1,1.78-1.79h4.27a2.08,2.08,0,0,1,.65.09A1.57,1.57,0,0,1,390.39,714.49Z"/><path d="M418.3,750.27a1.87,1.87,0,0,1-.51,1.4,2,2,0,0,1-1.45.5,1.74,1.74,0,0,1-1.9-1.9V715.48a1.66,1.66,0,0,1,1.9-1.87c1.3,0,2,.62,2,1.87Z"/><path d="M445,724.67a8.4,8.4,0,0,1,3.41,3.45,11.05,11.05,0,0,1,1.21,5.32V750.3a1.9,1.9,0,0,1-.47,1.39,1.83,1.83,0,0,1-1.37.48,1.69,1.69,0,0,1-1.3-.48,1.94,1.94,0,0,1-.46-1.39V733.65a6.63,6.63,0,0,0-1.74-4.95,6.47,6.47,0,0,0-4.72-1.69,19.77,19.77,0,0,0-7.11,1.26v22a2,2,0,0,1-.44,1.39,1.65,1.65,0,0,1-1.29.48,1.68,1.68,0,0,1-1.87-1.87V726.83a1.89,1.89,0,0,1,.23-.91,1.35,1.35,0,0,1,.65-.58,25.64,25.64,0,0,1,10.15-1.87A10.5,10.5,0,0,1,445,724.67Z"/><path d="M460.39,737.1a7,7,0,0,1-2.36-2.32,7.19,7.19,0,0,1-1-3.91,6.89,6.89,0,0,1,1.12-4,7.19,7.19,0,0,1,3-2.55,9.46,9.46,0,0,1,4-.87,13.43,13.43,0,0,1,3.64.45,17.6,17.6,0,0,1,3.23,1.3,1.85,1.85,0,0,1,.79.72,1.83,1.83,0,0,1,.27.95,1.79,1.79,0,0,1-.47,1.13,1.47,1.47,0,0,1-1.14.48,2.37,2.37,0,0,1-.81-.16l-.57-.19-.92-.4a9.25,9.25,0,0,0-1.81-.55,10.18,10.18,0,0,0-2.15-.22,5.13,5.13,0,0,0-3.19,1,3.55,3.55,0,0,0-1.35,3,3.74,3.74,0,0,0,.54,2.1,4.51,4.51,0,0,0,1.57,1.41,23.66,23.66,0,0,0,3,1.37,34.55,34.55,0,0,1,4.41,2.11,6.93,6.93,0,0,1,2.44,2.4,7.35,7.35,0,0,1,.87,3.8,8.36,8.36,0,0,1-1.12,4.39,7.6,7.6,0,0,1-3.07,2.88,9.49,9.49,0,0,1-4.41,1,16.91,16.91,0,0,1-7.6-2,1.86,1.86,0,0,1-1.35-1.7,1.62,1.62,0,0,1,.49-1.21,1.6,1.6,0,0,1,1.18-.48,5.17,5.17,0,0,1,1.64.44,21.85,21.85,0,0,0,2.75,1,10.44,10.44,0,0,0,3,.4,5,5,0,0,0,3.5-1.26,4.35,4.35,0,0,0,1.36-3.36,4.16,4.16,0,0,0-.63-2.39,5.09,5.09,0,0,0-1.77-1.55q-1.14-.63-3.48-1.62A27,27,0,0,1,460.39,737.1Z"/><path d="M483.85,714.72a1.87,1.87,0,0,1,.45,1.35V724h6.18a1.5,1.5,0,0,1,1.72,1.69,1.71,1.71,0,0,1-.44,1.27,1.67,1.67,0,0,1-1.28.46H484.3v16.68q0,4.93,4.1,4.94a18.28,18.28,0,0,0,3-.32l.79-.12a2.22,2.22,0,0,1,.41,0,1.49,1.49,0,0,1,1.16.47,1.81,1.81,0,0,1,.42,1.26,1.49,1.49,0,0,1-.47,1.18,2.59,2.59,0,0,1-1.43.57c-.9.18-1.65.31-2.25.38a14.33,14.33,0,0,1-1.87.12,7.19,7.19,0,0,1-5.59-2q-1.87-2-1.88-6.08v-17h-1.81a1.61,1.61,0,0,1-1.17-.47,1.78,1.78,0,0,1-.41-1.26,1.82,1.82,0,0,1,.41-1.26,1.52,1.52,0,0,1,1.17-.43h1.81v-7.9a1.64,1.64,0,0,1,1.82-1.82A1.78,1.78,0,0,1,483.85,714.72Z"/><path d="M505.72,725.78v24.57a1.87,1.87,0,0,1-.45,1.35,1.78,1.78,0,0,1-1.33.47,1.64,1.64,0,0,1-1.82-1.82v-23H499a1.53,1.53,0,0,1-1.69-1.73A1.49,1.49,0,0,1,499,724h5a1.52,1.52,0,0,1,1.75,1.34,2.08,2.08,0,0,1,0,.44Zm-4.5-7.89a2.13,2.13,0,0,1-.68-1.59,2.21,2.21,0,0,1,.68-1.61,2.28,2.28,0,0,1,3.23,0,2.23,2.23,0,0,1,.66,1.61,2.15,2.15,0,0,1-.66,1.59,2.31,2.31,0,0,1-3.23,0Z"/><path d="M518.7,714.72a1.87,1.87,0,0,1,.45,1.35V724h6.17a1.51,1.51,0,0,1,1.73,1.69,1.75,1.75,0,0,1-.44,1.27,1.68,1.68,0,0,1-1.29.46h-6.17v16.68q0,4.93,4.1,4.94a18.28,18.28,0,0,0,3-.32l.79-.12a2.22,2.22,0,0,1,.41,0,1.51,1.51,0,0,1,1.16.47,1.81,1.81,0,0,1,.42,1.26,1.52,1.52,0,0,1-.47,1.18,2.59,2.59,0,0,1-1.43.57c-.9.18-1.65.31-2.25.38a14.37,14.37,0,0,1-1.88.12,7.2,7.2,0,0,1-5.59-2c-1.24-1.36-1.87-3.39-1.87-6.08v-17h-1.81a1.61,1.61,0,0,1-1.17-.47,1.78,1.78,0,0,1-.41-1.26,1.82,1.82,0,0,1,.41-1.26,1.52,1.52,0,0,1,1.17-.43h1.81v-7.9a1.64,1.64,0,0,1,1.82-1.82A1.78,1.78,0,0,1,518.7,714.72Z"/><path d="M539.73,751.28a9.17,9.17,0,0,1-3.6-3.47,9.78,9.78,0,0,1-1.3-5V725.69a1.89,1.89,0,0,1,.47-1.36,1.79,1.79,0,0,1,1.35-.48,1.7,1.7,0,0,1,1.3.47,1.9,1.9,0,0,1,.45,1.37v17.06a5.92,5.92,0,0,0,.91,3.25,6.17,6.17,0,0,0,2.47,2.22,7.54,7.54,0,0,0,3.47.79,16.65,16.65,0,0,0,3.61-.34,21.57,21.57,0,0,0,3.15-.95v-22a1.9,1.9,0,0,1,.44-1.37,1.6,1.6,0,0,1,1.25-.47,1.87,1.87,0,0,1,1.39.47,1.79,1.79,0,0,1,.49,1.37v23.47a1.92,1.92,0,0,1-.22.92,1.34,1.34,0,0,1-.63.57,24.71,24.71,0,0,1-9.8,1.87A10.77,10.77,0,0,1,539.73,751.28Z"/><path d="M568.55,714.72a1.87,1.87,0,0,1,.46,1.35V724h6.17a1.51,1.51,0,0,1,1.73,1.69,1.75,1.75,0,0,1-.44,1.27,1.68,1.68,0,0,1-1.29.46H569v16.68q0,4.93,4.09,4.94a18.38,18.38,0,0,0,3-.32l.79-.12a2.07,2.07,0,0,1,.41,0,1.48,1.48,0,0,1,1.15.47,1.81,1.81,0,0,1,.42,1.26,1.52,1.52,0,0,1-.46,1.18A2.63,2.63,0,0,1,577,752c-.89.18-1.65.31-2.25.38a14.22,14.22,0,0,1-1.87.12,7.19,7.19,0,0,1-5.59-2q-1.87-2-1.87-6.08v-17h-1.82a1.63,1.63,0,0,1-1.17-.47,1.78,1.78,0,0,1-.41-1.26,1.82,1.82,0,0,1,.41-1.26,1.53,1.53,0,0,1,1.17-.43h1.82v-7.9a1.83,1.83,0,0,1,.46-1.35,1.86,1.86,0,0,1,1.35-.47A1.77,1.77,0,0,1,568.55,714.72Z"/><path d="M599.36,724.84a10.21,10.21,0,0,1,3.75,3.69,9.7,9.7,0,0,1,1.36,5v4a1.73,1.73,0,0,1-.43,1.2,1.49,1.49,0,0,1-1.18.47H587.23v3.36a6.57,6.57,0,0,0,.89,3.33,6.7,6.7,0,0,0,2.46,2.44,6.92,6.92,0,0,0,3.5.91,9.06,9.06,0,0,0,2.27-.27,9.87,9.87,0,0,0,1.67-.55c.41-.2,1-.48,1.68-.85l.51-.25a1.28,1.28,0,0,1,.63-.16,1.53,1.53,0,0,1,1.21.53,1.81,1.81,0,0,1,.27,2,1.57,1.57,0,0,1-.55.62,15.36,15.36,0,0,1-3.27,1.58,12.94,12.94,0,0,1-4.45.73,10.51,10.51,0,0,1-5.28-1.33,9.94,9.94,0,0,1-3.7-3.55,9.18,9.18,0,0,1-1.35-4.83V733.3a9.52,9.52,0,0,1,1.33-4.95,9.7,9.7,0,0,1,3.7-3.57,10.82,10.82,0,0,1,5.3-1.31A10.5,10.5,0,0,1,599.36,724.84Zm-12.13,11.3H601v-2.93a6.15,6.15,0,0,0-.93-3.31,6.78,6.78,0,0,0-2.52-2.35,7.53,7.53,0,0,0-6.93,0,6.24,6.24,0,0,0-2.46,2.32,6.42,6.42,0,0,0-.91,3.37Z"/><path d="M623.69,733.27a9.35,9.35,0,0,1,1.37-5,10,10,0,0,1,3.75-3.54,11.23,11.23,0,0,1,10.49,0,10,10,0,0,1,3.77,3.54,9.19,9.19,0,0,1,1.39,5v9.51a9.14,9.14,0,0,1-1.39,4.93,9.83,9.83,0,0,1-3.77,3.52,11.31,11.31,0,0,1-10.49,0,9.85,9.85,0,0,1-3.75-3.52,9.3,9.3,0,0,1-1.37-4.93Zm3.6,9.36a6.16,6.16,0,0,0,3.33,5.56,7.21,7.21,0,0,0,3.43.82,7.14,7.14,0,0,0,3.43-.84,6.35,6.35,0,0,0,2.48-2.28,6,6,0,0,0,.9-3.26v-9.24a6.09,6.09,0,0,0-.9-3.27,6.5,6.5,0,0,0-2.48-2.28,7.5,7.5,0,0,0-6.86,0,6.38,6.38,0,0,0-2.44,2.28,6.08,6.08,0,0,0-.89,3.27Z"/><path d="M666.14,713.8a1.5,1.5,0,0,1,.35,1.1,1.71,1.71,0,0,1-.41,1.21,1.35,1.35,0,0,1-1.05.45,2.44,2.44,0,0,1-.44-.06,19.34,19.34,0,0,0-2.22-.68,9.57,9.57,0,0,0-2.2-.22,4.83,4.83,0,0,0-3.13,1,3.4,3.4,0,0,0-1.23,2.81,6.81,6.81,0,0,0,.5,2.43l.79,2.14h5.56a1.78,1.78,0,0,1,1.29.43,2.07,2.07,0,0,1,0,2.55,1.78,1.78,0,0,1-1.29.44h-5.44v26.48a10.28,10.28,0,0,1-1.42,5.48,5.07,5.07,0,0,1-4.67,2.3c-.6,0-1.13,0-1.58-.06a16.07,16.07,0,0,1-1.75-.29,2.44,2.44,0,0,1-1.14-.56,1.41,1.41,0,0,1-.41-1.11,1.55,1.55,0,0,1,.51-1.27A1.66,1.66,0,0,1,648,758a15.69,15.69,0,0,0,2.72.26,2.25,2.25,0,0,0,2.34-1.37,8.94,8.94,0,0,0,.56-3.34V727.39H651.8a1.54,1.54,0,0,1-1.69-1.73A1.52,1.52,0,0,1,651.8,724h1.82l-.76-2.11a9.8,9.8,0,0,1-.67-3.34,5.92,5.92,0,0,1,.92-3.32,6,6,0,0,1,2.56-2.19,8.52,8.52,0,0,1,3.71-.78,16.7,16.7,0,0,1,3,.25,18.49,18.49,0,0,1,2.69.75A2.2,2.2,0,0,1,666.14,713.8Z"/><path d="M705.36,732.7a1.8,1.8,0,0,1,.54,1.42v12.81a2.78,2.78,0,0,1-1.08,2.52c-1.17.62-2.18,1.13-3,1.52a18.55,18.55,0,0,1-7.53,1.55,12.63,12.63,0,0,1-6.53-1.71,12.12,12.12,0,0,1-4.51-4.62,12.88,12.88,0,0,1-1.63-6.4V726.07a13.32,13.32,0,0,1,1.58-6.41A12.09,12.09,0,0,1,687.6,715a12.3,12.3,0,0,1,6.54-1.74,14.62,14.62,0,0,1,4.16.54,13.43,13.43,0,0,1,2.89,1.17c.73.42,1.58,1,2.58,1.68a1.89,1.89,0,0,1,.93,1.58,1.92,1.92,0,0,1-.57,1.36,1.69,1.69,0,0,1-1.24.6,2.92,2.92,0,0,1-1.49-.55c-.1-.08-.5-.36-1.22-.85a9.52,9.52,0,0,0-2.66-1.22,11.65,11.65,0,0,0-3.38-.48,8.68,8.68,0,0,0-4.5,1.17,8.26,8.26,0,0,0-3.12,3.22A9.31,9.31,0,0,0,685.4,726v13.67a9.52,9.52,0,0,0,1.12,4.65,8.1,8.1,0,0,0,3.16,3.2,9.3,9.3,0,0,0,4.67,1.16,14.16,14.16,0,0,0,3.29-.37,15.06,15.06,0,0,0,2.47-.79c.64-.28,1.37-.64,2.17-1.07V735.93h-6.79a1.68,1.68,0,0,1-1.87-1.87,1.85,1.85,0,0,1,.48-1.38,1.91,1.91,0,0,1,1.39-.46h8.39A2.14,2.14,0,0,1,705.36,732.7Z"/><path d="M728.07,724.84a10.26,10.26,0,0,1,3.74,3.69,9.61,9.61,0,0,1,1.36,5v4a1.72,1.72,0,0,1-.42,1.2,1.51,1.51,0,0,1-1.19.47H715.94v3.36a6.62,6.62,0,0,0,3.35,5.77,6.89,6.89,0,0,0,3.5.91,9,9,0,0,0,2.26-.27,9.87,9.87,0,0,0,1.67-.55c.42-.2,1-.48,1.68-.85.14-.06.31-.14.51-.25a1.34,1.34,0,0,1,.63-.16,1.55,1.55,0,0,1,1.22.53,1.79,1.79,0,0,1,.45,1.2,1.66,1.66,0,0,1-.19.78,1.62,1.62,0,0,1-.54.62,15.47,15.47,0,0,1-3.28,1.58,12.89,12.89,0,0,1-4.44.73,10.58,10.58,0,0,1-5.29-1.33,10.09,10.09,0,0,1-3.7-3.55,9.26,9.26,0,0,1-1.34-4.83V733.3a9.52,9.52,0,0,1,1.33-4.95,9.7,9.7,0,0,1,3.7-3.57,10.82,10.82,0,0,1,5.3-1.31A10.5,10.5,0,0,1,728.07,724.84Zm-12.13,11.3h13.75v-2.93a6.07,6.07,0,0,0-.94-3.31,6.68,6.68,0,0,0-2.51-2.35,7.55,7.55,0,0,0-6.94,0,6.33,6.33,0,0,0-3.36,5.69Z"/><path d="M756.49,724.67a8.4,8.4,0,0,1,3.41,3.45,11.05,11.05,0,0,1,1.21,5.32V750.3a1.9,1.9,0,0,1-.47,1.39,1.83,1.83,0,0,1-1.37.48,1.69,1.69,0,0,1-1.3-.48,1.94,1.94,0,0,1-.45-1.39V733.65a6.64,6.64,0,0,0-1.75-4.95,6.47,6.47,0,0,0-4.72-1.69,19.77,19.77,0,0,0-7.11,1.26v22a2,2,0,0,1-.44,1.39,1.65,1.65,0,0,1-1.29.48,1.68,1.68,0,0,1-1.87-1.87V726.83a1.89,1.89,0,0,1,.23-.91,1.35,1.35,0,0,1,.65-.58,25.64,25.64,0,0,1,10.15-1.87A10.5,10.5,0,0,1,756.49,724.67Z"/><path d="M784.59,724.84a10.21,10.21,0,0,1,3.75,3.69,9.61,9.61,0,0,1,1.36,5v4a1.68,1.68,0,0,1-.43,1.2,1.47,1.47,0,0,1-1.18.47H772.46v3.36a6.48,6.48,0,0,0,.9,3.33,6.55,6.55,0,0,0,2.46,2.44,6.88,6.88,0,0,0,3.49.91,9,9,0,0,0,2.27-.27,9.87,9.87,0,0,0,1.67-.55c.42-.2,1-.48,1.68-.85.13-.06.31-.14.51-.25a1.34,1.34,0,0,1,.63-.16,1.51,1.51,0,0,1,1.21.53,1.75,1.75,0,0,1,.46,1.2,1.79,1.79,0,0,1-.19.78,1.62,1.62,0,0,1-.54.62,15.71,15.71,0,0,1-3.28,1.58,12.94,12.94,0,0,1-4.45.73,10.51,10.51,0,0,1-5.28-1.33,10,10,0,0,1-3.7-3.55,9.18,9.18,0,0,1-1.35-4.83V733.3a9.61,9.61,0,0,1,1.33-4.95,9.72,9.72,0,0,1,3.71-3.57,10.78,10.78,0,0,1,5.29-1.31A10.5,10.5,0,0,1,784.59,724.84Zm-12.13,11.3h13.76v-2.93a6.07,6.07,0,0,0-.94-3.31,6.7,6.7,0,0,0-2.52-2.35,7.53,7.53,0,0,0-6.93,0,6.32,6.32,0,0,0-3.37,5.69Z"/><path d="M808.53,727.16a16.19,16.19,0,0,0-2-.15,9.55,9.55,0,0,0-3.36.64,7.8,7.8,0,0,0-2.67,1.55v21.1a2,2,0,0,1-.43,1.39,1.68,1.68,0,0,1-1.29.48,1.92,1.92,0,0,1-1.38-.48,1.87,1.87,0,0,1-.49-1.39V727.74a1.47,1.47,0,0,1,.29-.88,2.56,2.56,0,0,1,.76-.7,13.79,13.79,0,0,1,4-1.92,15.4,15.4,0,0,1,4.62-.77,18.41,18.41,0,0,1,2.66.19,10.28,10.28,0,0,1,2.26.54,1.64,1.64,0,0,1,.83.63,1.71,1.71,0,0,1,.28,1,1.83,1.83,0,0,1-.48,1.39,1.8,1.8,0,0,1-1.39.39A13.63,13.63,0,0,0,808.53,727.16Z"/><path d="M831.26,724.64a7.76,7.76,0,0,1,3.26,3.33,11.18,11.18,0,0,1,1.11,5.15v15.57a2.61,2.61,0,0,1-.29,1.43A2.83,2.83,0,0,1,834,751a19.37,19.37,0,0,1-4.06,1.13,29,29,0,0,1-5,.42,11.35,11.35,0,0,1-5-1,7.55,7.55,0,0,1-3.27-2.94,8.76,8.76,0,0,1-1.14-4.55v-.12c0-2.85.85-5,2.53-6.41a10.53,10.53,0,0,1,7-2.13,21.72,21.72,0,0,1,7,1.08v-3.1a6.3,6.3,0,0,0-1.65-4.7,6.18,6.18,0,0,0-4.52-1.62,14.19,14.19,0,0,0-5.5,1.11,4.7,4.7,0,0,0-.48.13,2.25,2.25,0,0,1-.66.1,1.26,1.26,0,0,1-1-.52,1.84,1.84,0,0,1-.43-1.17,2,2,0,0,1,.25-1,1.81,1.81,0,0,1,.87-.67,16.15,16.15,0,0,1,3.36-1.11,17.72,17.72,0,0,1,3.81-.41A10.66,10.66,0,0,1,831.26,724.64Zm.8,23.55V739.3a19.75,19.75,0,0,0-3.1-.71,23.57,23.57,0,0,0-3.45-.26,7.47,7.47,0,0,0-4.72,1.32,4.76,4.76,0,0,0-1.69,4v.05a5.49,5.49,0,0,0,1.64,4.22,6.55,6.55,0,0,0,4.62,1.52A18.79,18.79,0,0,0,832.06,748.19Z"/><path d="M847.94,714.72a1.87,1.87,0,0,1,.45,1.35V724h6.17a1.51,1.51,0,0,1,1.73,1.69,1.75,1.75,0,0,1-.44,1.27,1.68,1.68,0,0,1-1.29.46h-6.17v16.68c0,3.29,1.36,4.94,4.1,4.94a18.39,18.39,0,0,0,3-.32l.79-.12a2.15,2.15,0,0,1,.41,0,1.51,1.51,0,0,1,1.16.47,1.81,1.81,0,0,1,.42,1.26,1.52,1.52,0,0,1-.47,1.18,2.59,2.59,0,0,1-1.43.57c-.9.18-1.65.31-2.26.38a14.22,14.22,0,0,1-1.87.12,7.19,7.19,0,0,1-5.59-2q-1.87-2-1.87-6.08v-17H843a1.61,1.61,0,0,1-1.17-.47,1.74,1.74,0,0,1-.41-1.26,1.77,1.77,0,0,1,.41-1.26A1.52,1.52,0,0,1,843,724h1.81v-7.9a1.64,1.64,0,0,1,1.82-1.82A1.8,1.8,0,0,1,847.94,714.72Z"/><path d="M869.81,725.78v24.57a1.83,1.83,0,0,1-.46,1.35,1.77,1.77,0,0,1-1.33.47,1.82,1.82,0,0,1-1.34-.47,1.79,1.79,0,0,1-.47-1.35v-23h-3.16a1.71,1.71,0,0,1-1.26-.44,1.75,1.75,0,0,1-.44-1.29,1.5,1.5,0,0,1,1.7-1.69h5c1,0,1.62.44,1.76,1.34a2.08,2.08,0,0,1,0,.44Zm-4.51-7.89a2.12,2.12,0,0,1-.67-1.59,2.29,2.29,0,0,1,2.28-2.28,2.14,2.14,0,0,1,1.62.67,2.23,2.23,0,0,1,.66,1.61,2.25,2.25,0,0,1-2.28,2.25A2.23,2.23,0,0,1,865.3,717.89Z"/><path d="M878.15,733.27a9.26,9.26,0,0,1,1.37-5,10,10,0,0,1,3.75-3.54,10.66,10.66,0,0,1,5.24-1.3,10.78,10.78,0,0,1,5.25,1.3,10,10,0,0,1,3.77,3.54,9.19,9.19,0,0,1,1.39,5v9.51a9.14,9.14,0,0,1-1.39,4.93,9.91,9.91,0,0,1-3.77,3.52,10.88,10.88,0,0,1-5.25,1.29,10.76,10.76,0,0,1-5.24-1.29,9.85,9.85,0,0,1-3.75-3.52,9.21,9.21,0,0,1-1.37-4.93Zm3.6,9.36a6.16,6.16,0,0,0,3.33,5.56,7.5,7.5,0,0,0,6.86,0,6.32,6.32,0,0,0,2.47-2.28,6,6,0,0,0,.91-3.26v-9.24a6,6,0,0,0-.91-3.27,6.47,6.47,0,0,0-2.47-2.28,7.5,7.5,0,0,0-6.86,0,6.38,6.38,0,0,0-2.44,2.28,6.08,6.08,0,0,0-.89,3.27Z"/><path d="M923.38,724.67a8.4,8.4,0,0,1,3.41,3.45,11.05,11.05,0,0,1,1.21,5.32V750.3a1.9,1.9,0,0,1-.47,1.39,1.83,1.83,0,0,1-1.37.48,1.73,1.73,0,0,1-1.31-.48,2,2,0,0,1-.45-1.39V733.65a6.63,6.63,0,0,0-1.74-4.95,6.47,6.47,0,0,0-4.72-1.69,19.77,19.77,0,0,0-7.11,1.26v22a2,2,0,0,1-.44,1.39,1.68,1.68,0,0,1-1.29.48,1.68,1.68,0,0,1-1.87-1.87V726.83a1.89,1.89,0,0,1,.23-.91,1.35,1.35,0,0,1,.65-.58,25.6,25.6,0,0,1,10.15-1.87A10.53,10.53,0,0,1,923.38,724.67Z"/><path d="M950.81,724.64a7.76,7.76,0,0,1,3.26,3.33,11.18,11.18,0,0,1,1.11,5.15v15.57a2.71,2.71,0,0,1-.29,1.43,2.94,2.94,0,0,1-1.35.85,19.55,19.55,0,0,1-4.06,1.13,29,29,0,0,1-5,.42,11.43,11.43,0,0,1-5-1,7.58,7.58,0,0,1-3.26-2.94,8.76,8.76,0,0,1-1.14-4.55v-.12c0-2.85.84-5,2.53-6.41a10.51,10.51,0,0,1,7-2.13,21.76,21.76,0,0,1,7,1.08v-3.1a6.3,6.3,0,0,0-1.65-4.7,6.18,6.18,0,0,0-4.52-1.62,14.15,14.15,0,0,0-5.5,1.11l-.49.13a2.14,2.14,0,0,1-.65.1,1.26,1.26,0,0,1-1-.52,1.78,1.78,0,0,1-.43-1.17,2,2,0,0,1,.25-1,1.78,1.78,0,0,1,.86-.67,16.45,16.45,0,0,1,3.37-1.11,17.7,17.7,0,0,1,3.8-.41A10.7,10.7,0,0,1,950.81,724.64Zm.8,23.55V739.3a20,20,0,0,0-3.1-.71,23.57,23.57,0,0,0-3.45-.26,7.5,7.5,0,0,0-4.73,1.32,4.78,4.78,0,0,0-1.68,4v.05a5.49,5.49,0,0,0,1.64,4.22,6.55,6.55,0,0,0,4.62,1.52A18.83,18.83,0,0,0,951.61,748.19Z"/><path d="M968.64,714.49v35.86a1.79,1.79,0,0,1-.47,1.35,1.82,1.82,0,0,1-3.16-1.35V716.24h-2.45a1.77,1.77,0,0,1-1.34-.47,1.86,1.86,0,0,1-.45-1.34,1.58,1.58,0,0,1,1.79-1.79h4.27a2,2,0,0,1,.64.09A1.57,1.57,0,0,1,968.64,714.49Z"/><path d="M994.45,752.05a1.64,1.64,0,0,1-1.32-.51,2.17,2.17,0,0,1-.44-1.45V715.6a1.85,1.85,0,0,1,.51-1.42,2,2,0,0,1,1.45-.49h17a1.7,1.7,0,0,1,1.9,1.91,2,2,0,0,1-.5,1.45,1.87,1.87,0,0,1-1.4.51H996.55v13h11.85a1.92,1.92,0,0,1,1.42.47,1.79,1.79,0,0,1,.48,1.34,1.73,1.73,0,0,1-.48,1.33,2,2,0,0,1-1.42.46H996.55v14.07h15.13a1.9,1.9,0,0,1,1.42.5,2.34,2.34,0,0,1,0,2.84,1.9,1.9,0,0,1-1.42.49Z"/><path d="M1037.16,724.67a8.34,8.34,0,0,1,3.41,3.45,11.06,11.06,0,0,1,1.22,5.32V750.3a2,2,0,0,1-.47,1.39,1.84,1.84,0,0,1-1.38.48,1.71,1.71,0,0,1-1.3-.48,2,2,0,0,1-.45-1.39V733.65a6.63,6.63,0,0,0-1.74-4.95,6.49,6.49,0,0,0-4.73-1.69,19.84,19.84,0,0,0-7.11,1.26v22a2,2,0,0,1-.44,1.39,1.64,1.64,0,0,1-1.28.48,1.69,1.69,0,0,1-1.88-1.87V726.83a1.79,1.79,0,0,1,.24-.91,1.33,1.33,0,0,1,.64-.58,25.67,25.67,0,0,1,10.15-1.87A10.47,10.47,0,0,1,1037.16,724.67Z"/><path d="M1054.89,759.54a1.83,1.83,0,0,1,.43-1.27,1.69,1.69,0,0,1,1.5-.45,19.46,19.46,0,0,0,4.69.52,4.64,4.64,0,0,0,4.15-2c.9-1.34,1.34-3.39,1.34-6.16l.24-1.55-1.14.7a11.64,11.64,0,0,1-2.8,1.14,13.56,13.56,0,0,1-3.82.53,9.21,9.21,0,0,1-4.9-1.39,10.16,10.16,0,0,1-3.61-3.83,11.1,11.1,0,0,1-1.34-5.46v-6.73a10.43,10.43,0,0,1,1.3-5.25,9.27,9.27,0,0,1,3.6-3.59,10.51,10.51,0,0,1,5.19-1.28,26.31,26.31,0,0,1,4.9.41,26.64,26.64,0,0,1,4.35,1.25,2.36,2.36,0,0,1,1.12.72,2.27,2.27,0,0,1,.31,1.33v23.5a15.93,15.93,0,0,1-1,6,8.32,8.32,0,0,1-2.91,3.8,7.71,7.71,0,0,1-4.51,1.32,24.21,24.21,0,0,1-5.41-.62C1055.45,761,1054.89,760.44,1054.89,759.54Zm8.84-12.64a13.78,13.78,0,0,0,2.19-.93l.85-.5v-17.2l-1.34-.47a15,15,0,0,0-2.48-.59,20.47,20.47,0,0,0-2.91-.2,7.27,7.27,0,0,0-3.48.83,6.06,6.06,0,0,0-2.44,2.4,7.23,7.23,0,0,0-.89,3.67v6.32a8,8,0,0,0,.86,3.78,6.19,6.19,0,0,0,2.41,2.53,7,7,0,0,0,3.54.89A11,11,0,0,0,1063.73,746.9Z"/><path d="M1084.38,714.49v35.86a1.83,1.83,0,0,1-.46,1.35,1.85,1.85,0,0,1-1.35.47,1.82,1.82,0,0,1-1.34-.47,1.79,1.79,0,0,1-.47-1.35V716.24h-2.46a1.73,1.73,0,0,1-1.33-.47,1.82,1.82,0,0,1-.46-1.34,1.58,1.58,0,0,1,1.79-1.79h4.27a2,2,0,0,1,.64.09A1.57,1.57,0,0,1,1084.38,714.49Z"/><path d="M1099.42,725.78v24.57a1.87,1.87,0,0,1-.45,1.35,1.77,1.77,0,0,1-1.33.47,1.63,1.63,0,0,1-1.81-1.82v-23h-3.17a1.7,1.7,0,0,1-1.25-.44,1.75,1.75,0,0,1-.44-1.29,1.49,1.49,0,0,1,1.69-1.69h5c1,0,1.62.44,1.75,1.34a2.08,2.08,0,0,1,0,.44Zm-4.5-7.89a2.12,2.12,0,0,1-.67-1.59,2.29,2.29,0,0,1,2.28-2.28,2.17,2.17,0,0,1,1.62.67,2.23,2.23,0,0,1,.66,1.61,2.15,2.15,0,0,1-.66,1.59,2.31,2.31,0,0,1-3.23,0Z"/><path d="M1110.67,737.1a7,7,0,0,1-2.35-2.32,7.19,7.19,0,0,1-1-3.91,7,7,0,0,1,1.11-4,7.22,7.22,0,0,1,3-2.55,9.46,9.46,0,0,1,4-.87,13.43,13.43,0,0,1,3.64.45,17.6,17.6,0,0,1,3.23,1.3,1.85,1.85,0,0,1,.79.72,1.83,1.83,0,0,1,.27.95,1.79,1.79,0,0,1-.47,1.13,1.47,1.47,0,0,1-1.14.48,2.37,2.37,0,0,1-.81-.16l-.57-.19-.92-.4a9.46,9.46,0,0,0-1.81-.55,10.18,10.18,0,0,0-2.15-.22,5.11,5.11,0,0,0-3.19,1,3.55,3.55,0,0,0-1.35,3,3.74,3.74,0,0,0,.54,2.1,4.42,4.42,0,0,0,1.57,1.41,23.66,23.66,0,0,0,3,1.37,34.55,34.55,0,0,1,4.41,2.11,6.93,6.93,0,0,1,2.44,2.4,7.35,7.35,0,0,1,.87,3.8,8.36,8.36,0,0,1-1.12,4.39,7.6,7.6,0,0,1-3.07,2.88,9.49,9.49,0,0,1-4.41,1,16.88,16.88,0,0,1-7.6-2,1.86,1.86,0,0,1-1.35-1.7,1.65,1.65,0,0,1,.48-1.21,1.62,1.62,0,0,1,1.19-.48,5.24,5.24,0,0,1,1.64.44,21.85,21.85,0,0,0,2.75,1,10.4,10.4,0,0,0,3,.4,5,5,0,0,0,3.5-1.26,4.38,4.38,0,0,0,1.36-3.36,4.16,4.16,0,0,0-.63-2.39,5.09,5.09,0,0,0-1.77-1.55q-1.14-.63-3.48-1.62A27.16,27.16,0,0,1,1110.67,737.1Z"/><path d="M1147.06,724.75a9.36,9.36,0,0,1,3.62,3.55,9.71,9.71,0,0,1,1.32,5v17a2,2,0,0,1-.47,1.39,1.83,1.83,0,0,1-1.37.48,1.69,1.69,0,0,1-1.3-.48,1.94,1.94,0,0,1-.46-1.39V733.36a6,6,0,0,0-.9-3.24,6.5,6.5,0,0,0-2.48-2.28,7.32,7.32,0,0,0-3.47-.83,16.59,16.59,0,0,0-3.32.28,26.87,26.87,0,0,0-2.82.74,5.32,5.32,0,0,1-.58.21V750.3a2,2,0,0,1-.44,1.39,1.68,1.68,0,0,1-1.29.48,1.88,1.88,0,0,1-1.39-.48,1.91,1.91,0,0,1-.48-1.39V714.37a1.91,1.91,0,0,1,.45-1.38,1.78,1.78,0,0,1,1.33-.47,1.62,1.62,0,0,1,1.82,1.85v9.22l-.3,1.19a20.57,20.57,0,0,1,3.56-1,21.3,21.3,0,0,1,3.79-.35A10.58,10.58,0,0,1,1147.06,724.75Z"/><path class="cls-2" d="M384,675V590.48a11.88,11.88,0,0,1,3.76-9,12.41,12.41,0,0,1,8.82-3.55h59a3.69,3.69,0,0,1,3.76,3.76V596a3.08,3.08,0,0,1-1,2.46,3.76,3.76,0,0,1-2.76,1H402.21a7.34,7.34,0,0,1,5.71,2.46,7.78,7.78,0,0,1,2.25,5.35v6.07a5,5,0,0,0,1.08,3,3.83,3.83,0,0,0,3.26,1.44H446a3.69,3.69,0,0,1,3.75,3.76v13a3.69,3.69,0,0,1-3.75,3.76H402.21a7.64,7.64,0,0,1,5.64,2.31,7.17,7.17,0,0,1,2.32,5.2v6.79a4.83,4.83,0,0,0,1.15,3,3.85,3.85,0,0,0,3.19,1.45h42.21q3.75,0,3.75,3.75V675a3.39,3.39,0,0,1-1.07,2.68,4,4,0,0,1-2.68.94H387.61A3.71,3.71,0,0,1,384,675Zm114.05.29V590.77a11.8,11.8,0,0,1,3.83-9,12.58,12.58,0,0,1,8.75-3.54h28.91a67.6,67.6,0,0,1,17.86,2.24,39.39,39.39,0,0,1,14.23,7.08,33.61,33.61,0,0,1,9.55,12.29,45,45,0,0,1,3.76,17.71c.09,1.35.14,3,.14,4.84v12.36c0,1.83-.05,3.43-.14,4.77q-1.32,39.46-44.68,39.47H501.67a3.49,3.49,0,0,1-3.62-3.62Zm41.49-17.92q9.39,0,13.59-4.55t4.34-13.66c.1-1.36.17-2.92.22-4.7s.07-3.78.07-6,0-4.22-.07-6-.12-3.34-.22-4.69q-.44-18.07-18.64-18.07H517.14a7.62,7.62,0,0,1,5.64,2.38,7.32,7.32,0,0,1,2.31,5.14v45.68a4.42,4.42,0,0,0,1.23,3.18,4.27,4.27,0,0,0,3.25,1.3Zm84.14,17.92V590.77a11.91,11.91,0,0,1,3.75-9,12.52,12.52,0,0,1,8.82-3.54h11.58a3.24,3.24,0,0,1,2.59,1,3.56,3.56,0,0,1,1,2.6v93.53a3.53,3.53,0,0,1-1,2.6,3.21,3.21,0,0,1-2.59,1H627.29a3.48,3.48,0,0,1-3.61-3.62ZM690,640.06c-.09-1.35-.14-3.11-.14-5.27V619.1c0-2.22,0-4,.14-5.35a40.12,40.12,0,0,1,4-17.2,34.2,34.2,0,0,1,9.75-11.86,41.45,41.45,0,0,1,14.17-6.86,65,65,0,0,1,17.34-2.24,70.64,70.64,0,0,1,10.92.87A60,60,0,0,1,757,579.2a46.49,46.49,0,0,1,9.91,4.92,34.78,34.78,0,0,1,8.09,7.37q5.49,6.94,5.63,14.31a3.19,3.19,0,0,1-3.18,3.18H755.21a3,3,0,0,1-2.16-.58,4.76,4.76,0,0,1-1.6-1.44,15,15,0,0,0-2.23-3.69A27,27,0,0,0,746,600q-4-2.89-10.7-2.89-16.62,0-17.34,17.35c-.1,1.34-.14,3-.14,5v14.6c0,2.13,0,3.86.14,5.21q.29,9.1,4.63,13.66t15.18,4.55c2.31,0,4.19-.07,5.63-.22a16.86,16.86,0,0,0,3.69-.72,9.58,9.58,0,0,0,2.6-1.3c.73-.53,1.52-1.13,2.39-1.81a13.69,13.69,0,0,0,4.19-7.08,10.34,10.34,0,0,1,4.55-6.43,11.89,11.89,0,0,1,3-1.38,9.87,9.87,0,0,1,2.52-.43H740.75a3.34,3.34,0,0,1-2.66-1.08,3.92,3.92,0,0,1-1-2.68V632a13.36,13.36,0,0,1,.8-4.41,11.51,11.51,0,0,1,2.38-4,13.44,13.44,0,0,1,3.91-2.89,11.79,11.79,0,0,1,5.34-1.16H771c3.57,0,6.14.94,7.73,2.82a11.32,11.32,0,0,1,2.39,7.59v10a38.86,38.86,0,0,1-3.76,17.72,34.64,34.64,0,0,1-10,12.21,42.87,42.87,0,0,1-14.6,7.08,67.93,67.93,0,0,1-35.13,0,40,40,0,0,1-14.17-7.08,34,34,0,0,1-9.54-12.21A43.48,43.48,0,0,1,690,640.06Zm129.09,35V590.48a11.87,11.87,0,0,1,3.75-9,12.45,12.45,0,0,1,8.82-3.55h59a4,4,0,0,1,3.76,3.76V596a2.9,2.9,0,0,1-1.15,2.46,3.55,3.55,0,0,1-2.61,1H837.18a7.38,7.38,0,0,1,5.71,2.46,7.82,7.82,0,0,1,2.25,5.35v6.07a4.82,4.82,0,0,0,1.15,3,4,4,0,0,0,3.32,1.44H881c2.5,0,3.76,1.25,3.76,3.76v13c0,2.51-1.26,3.76-3.76,3.76h-43.8a7.67,7.67,0,0,1,5.63,2.31,7.18,7.18,0,0,1,2.33,5.2v6.79a4.6,4.6,0,0,0,1.22,3,4,4,0,0,0,3.25,1.45h42.21a3.69,3.69,0,0,1,3.76,3.75V675a3.3,3.3,0,0,1-1.16,2.61,3.87,3.87,0,0,1-2.6,1h-69.1a3.46,3.46,0,0,1-3.61-3.62Z"/><path class="cls-3" d="M744,532a181,181,0,0,1-25.33,17.39l-.16.09s0,0-.05,0c-4.63,1.56-9.33,2.93-14.14,4.11,0,0,0,0,0,0-4.13,1.07-8.33,2-12.57,2.76a9.3,9.3,0,0,1-1,.19c-1,.18-2,.34-2.94.5-.8.16-1.6.27-2.42.39-1.12.18-2.24.34-3.35.47a3.1,3.1,0,0,1-.67.1c-1.34.18-2.71.34-4.06.5-.54.07-1.09.13-1.64.16-1.37.16-2.74.29-4.11.41l-.27,0a181.74,181.74,0,0,0,65.51-46.68c.5.68,1,1.39,1.46,2.07a23.84,23.84,0,0,1,3,5.46c.85,2.28,1.37,4.67,2.33,6.91a5.71,5.71,0,0,1,.23,2,6.91,6.91,0,0,1,.18,1.62.2.2,0,0,1,.05.09A11.86,11.86,0,0,1,744,532Z"/><path class="cls-4" d="M699,488.23c-.18.46-.37,1.07-.59,1.74a.65.65,0,0,1,0,.2c-.09.78-.27,1.53-.41,2.31a5.72,5.72,0,0,0,.25,3.08,5.25,5.25,0,0,0,.32,1c.09.21.25.41.21.62a2.69,2.69,0,0,1,.18.87c.11,1.68-1.26,3.49-2.1,4.58-.34.44-.46,1-.82,1.42,0,0,0,0,0,0s0,.34,0,.57a4,4,0,0,1-1.67,3,23.88,23.88,0,0,1-3.31,2.26c-.64.5-1.34,1.66-2,2.05a12.31,12.31,0,0,1-1,.91c-2.83,1.19-6,1.6-8.83,2.69a16.16,16.16,0,0,0-4.22,2.1c-1.83,1.33-2.81,2.17-4.75,2.65-2.62.68-5.18,1.48-7.73,2.35a181.71,181.71,0,0,0,37.83-37.9A29.33,29.33,0,0,1,699,488.23Z"/><path class="cls-5" d="M725.55,505.8a181.46,181.46,0,0,1-105.46,51.25h0a196.32,196.32,0,0,1-20.29-4.4,181.47,181.47,0,0,0,39.75-15.52c1.28,1.12,2.26,2.62,3.49,3.86a9.61,9.61,0,0,1,1.35,1.43,1.08,1.08,0,0,1,.18.73,71.27,71.27,0,0,1,7.17-2.46,9.12,9.12,0,0,0,2.51-1.21c1.16-.68,2-1.67,3.24-2.26a12.84,12.84,0,0,1,3.26-.66,10.44,10.44,0,0,0,2.69-1.44,30.63,30.63,0,0,0,2.85-1.78c.71-.59,1.49-1.39,2.26-2,1.23-1,2.65-1.32,3.93-2.21,2.19-1.35,4.15-3.06,6.43-4.29,1.92-1,4.18-1.94,5.59-2.6,2.88-1,5-1.55,7.83-2.3.34-.14.68-.3,1-.46q1.63-1.23,3.3-2.4c2.67-2,5.18-4.13,7.83-6.14s5.89-2.87,9-3.65c2.53-.5,5-1.27,7.58-1.59A16.61,16.61,0,0,1,725.55,505.8Z"/><path class="cls-6" d="M744,532a181,181,0,0,1-25.33,17.39l-.16.09s0,0-.05,0c-4.63,1.56-9.33,2.93-14.14,4.11,0,0,0,0,0,0-4.13,1.07-8.33,2-12.57,2.76a9.3,9.3,0,0,1-1,.19c-1,.18-2,.34-2.94.5-.8.16-1.6.27-2.42.39-1.12.18-2.24.34-3.35.47a3.1,3.1,0,0,1-.67.1c-1.34.18-2.71.34-4.06.5-.54.07-1.09.13-1.64.16-1.37.16-2.74.29-4.11.41l-.27,0a181.74,181.74,0,0,0,65.51-46.68c.5.68,1,1.39,1.46,2.07a23.84,23.84,0,0,1,3,5.46c.85,2.28,1.37,4.67,2.33,6.91a5.71,5.71,0,0,1,.23,2,6.91,6.91,0,0,1,.18,1.62.2.2,0,0,1,.05.09A11.86,11.86,0,0,1,744,532Z"/><path class="cls-7" d="M690.73,458.66c-1,.52-2,1-3,1.62l.21-.41c.3-.18.62-.34.94-.5.61-.3,1.18-.71,1.8-1C690.8,458.43,690.85,458.61,690.73,458.66Z"/><path class="cls-8" d="M686.76,462.1c1.6-.86,3.15-1.84,4.82-2.6a.79.79,0,0,1,.64,0s.09,0,.11.07l.12.11s0,0,0,.07.07.07.07.09c.57.34.8.71.52,1.3a14.74,14.74,0,0,1-2.16,1.46c-2.38,1.46-4.64,3.06-6.94,4.61C684.94,465.5,685.87,463.82,686.76,462.1Z"/><path class="cls-9" d="M703.15,464.52a.79.79,0,0,1-.16.62l-.78,1.14a27,27,0,0,0-1.89,2.35c-.05,0-.07.05-.12.05-2.67,3.42-5.45,6.75-8,10.26-.39.51-.75,1-1.12,1.56.85-.16,1.74-.37,2.81-.53a6.19,6.19,0,0,1,4.43.64,4.29,4.29,0,0,1,2,2.3,3.29,3.29,0,0,1,.07,1.53l-.07.3a181.71,181.71,0,0,1-37.83,37.9,181.89,181.89,0,0,1-62.64,30q-6.94-1.92-13.67-4.27a181.54,181.54,0,0,0,97.64-80.8c2.6-1.64,5.2-3.31,7.81-5,.29-.14.63-.62.86-.55a.09.09,0,0,1,0,.16l-7.53,5.16c.64-.42,1.28-.8,1.92-1.21,2.92-1.9,5.82-4,9.13-5.21.36-.11.57.3.75.55a2.27,2.27,0,0,1,.55,1.21c-.07.23-.3.37-.46.5-1.39,1-2.81,2-4.15,3.11s-2.58,2.1-3.88,3.12c2.81-2,5.79-4.11,8-5.68.23-.11.48-.34.77-.25s.46.39.62.62a7.51,7.51,0,0,1,.94,1.43c.91-.64,1.8-1.27,2.71-1.89a.45.45,0,0,1,.53,0A3.45,3.45,0,0,1,703.15,464.52Z"/><path class="cls-10" d="M699,488.23c-.18.46-.37,1.07-.59,1.74a.65.65,0,0,1,0,.2c-.09.78-.27,1.53-.41,2.31a5.72,5.72,0,0,0,.25,3.08,5.25,5.25,0,0,0,.32,1c.09.21.25.41.21.62a2.69,2.69,0,0,1,.18.87c.11,1.68-1.26,3.49-2.1,4.58-.34.44-.46,1-.82,1.42,0,0,0,0,0,0s0,.34,0,.57a4,4,0,0,1-1.67,3,23.88,23.88,0,0,1-3.31,2.26c-.64.5-1.34,1.66-2,2.05a12.31,12.31,0,0,1-1,.91c-2.83,1.19-6,1.6-8.83,2.69a16.16,16.16,0,0,0-4.22,2.1c-1.83,1.33-2.81,2.17-4.75,2.65-2.62.68-5.18,1.48-7.73,2.35a181.71,181.71,0,0,0,37.83-37.9A29.33,29.33,0,0,1,699,488.23Z"/><path class="cls-11" d="M725.55,505.8a181.46,181.46,0,0,1-105.46,51.25h0a196.32,196.32,0,0,1-20.29-4.4,181.47,181.47,0,0,0,39.75-15.52c1.28,1.12,2.26,2.62,3.49,3.86a9.61,9.61,0,0,1,1.35,1.43,1.08,1.08,0,0,1,.18.73,71.27,71.27,0,0,1,7.17-2.46,9.12,9.12,0,0,0,2.51-1.21c1.16-.68,2-1.67,3.24-2.26a12.84,12.84,0,0,1,3.26-.66,10.44,10.44,0,0,0,2.69-1.44,30.63,30.63,0,0,0,2.85-1.78c.71-.59,1.49-1.39,2.26-2a16.07,16.07,0,0,1,3.93-2.21,25.32,25.32,0,0,0,6.43-4.29,39.8,39.8,0,0,1,5.59-2.6A40.59,40.59,0,0,1,688.4,521l3.91-1.05.51-.22.52-.24a13.93,13.93,0,0,0,3.3-2.4c1.21-1.2,4.89-3.89,7.83-6.14,2.58-2,5.89-2.87,9-3.65,2.53-.5,5-1.27,7.58-1.59A16.61,16.61,0,0,1,725.55,505.8Z"/><path class="cls-12" d="M622,390.73a39.84,39.84,0,0,1,2.67,3c-1-.78-2.13-1.53-3.18-2.33C621.66,391.19,621.85,391,622,390.73Z"/><path class="cls-13" d="M618.54,387a7.37,7.37,0,0,1-1.58-5.27,14.87,14.87,0,0,1,1.65-6.07c.22-.45.48-.91.73-1.34-.21-.46-.39-.92-.55-1.37l-.07-.21h0a21.17,21.17,0,0,1-1.65,2.24,14.68,14.68,0,0,0-1.3,3.67,13.65,13.65,0,0,0,.92,7.9,11.15,11.15,0,0,0,3.28,3.63c.23-.3.48-.58.71-.87C619.93,388.59,619.22,387.83,618.54,387Zm5.77-4.49a38.31,38.31,0,0,1-4.75-7.69,18.36,18.36,0,0,0-1.73,4c-.84,2.9-.73,6.36,1.51,8.53l1.25,1.32a.08.08,0,0,1,0-.11,28.24,28.24,0,0,0,4.25-5.43C624.65,383,624.47,382.77,624.31,382.54Zm.55-22c.18,5,.45,9,1.78,13.44.32,1,.68,1.94,1.09,2.87,0-.09.07-.18.09-.27a36.44,36.44,0,0,0,.53-4.77A17.51,17.51,0,0,0,624.86,360.5Zm2.51,1.53a19.32,19.32,0,0,0-2.74-4.2l-.07.16a1.66,1.66,0,0,1,.12.68,14,14,0,0,1,2.05,2.88c1.76,3.1,1.8,6.8,1.69,10.26-.12,1.49-.28,3-.53,4.43a20.18,20.18,0,0,0,.82-4.88C628.78,367.23,628.81,365.27,627.37,362Zm3.15,4.79a28.56,28.56,0,0,1-1.23,9,31.11,31.11,0,0,0,1.2-4.54A31.76,31.76,0,0,0,630.52,366.82Zm1.18,36.85a19.43,19.43,0,0,0-2-3.2c-.16-.16-.32-.36-.48-.52-.66-.66-1.37-1.3-2.07-1.94a6.4,6.4,0,0,1,.2.62c.55.57,1.1,1.16,1.65,1.78a22.63,22.63,0,0,1,5.06,9.3,3.67,3.67,0,0,0,.16.53s0,.05,0,.05A19.8,19.8,0,0,0,631.7,403.67Zm4.13-12.07c-2.67-3-5.54-5.68-8.07-8.72a2.8,2.8,0,0,1-.14.25c2.6,3.4,6.07,6.21,8.92,9.38C636.31,392.19,636.08,391.89,635.83,391.6Zm.64,26.65a4,4,0,0,1,.16.64,35.79,35.79,0,0,1,2.15-4.29,21.11,21.11,0,0,0,1.66-3.84C639.3,413.37,637.66,415.78,636.47,418.25ZM640,404.92a16.45,16.45,0,0,0-.8-4.61v0A17.63,17.63,0,0,0,633.3,392c-2-2.17-4.63-4.52-6.89-6.93-1.39,2-2.87,3.74-4.2,5.45A34.83,34.83,0,0,1,625,394a28.51,28.51,0,0,1,6.48,6.21,10.53,10.53,0,0,1,1.76,3.74,1,1,0,0,1,.06.39s0,0-.06.05-.19-.71-.28-.92a10.69,10.69,0,0,0-1.14-2.42,16.6,16.6,0,0,0-3.72-3.9c-.71-.52-1.41-1.05-2.12-1.55l.2.34a34.25,34.25,0,0,1,5.3,6,19.25,19.25,0,0,1,1.32,2.12,22.14,22.14,0,0,1,2.4,9.27c.39,1.59.82,3.21,1.23,4.81.94-2.9,2.28-5.68,3-8.6a13.65,13.65,0,0,0,.53-3.17v-.07a.74.74,0,0,0,0-.21A11,11,0,0,0,640,404.92Z"/><path class="cls-14" d="M732.17,412a180.22,180.22,0,0,1-31.92,72.72l.07-.3a3.29,3.29,0,0,0-.07-1.53,4.29,4.29,0,0,0-2-2.3,6.19,6.19,0,0,0-4.43-.64c-1.07.16-2,.37-2.81.53.37-.53.73-1.05,1.12-1.56,2.58-3.51,5.36-6.84,8-10.26,0,0,.07,0,.12-.05a27,27,0,0,1,1.89-2.35l.78-1.14a.79.79,0,0,0,.16-.62,3.45,3.45,0,0,0-.82-.84.45.45,0,0,0-.53,0c-.91.62-1.8,1.25-2.71,1.89a7.51,7.51,0,0,0-.94-1.43c-.16-.23-.32-.53-.62-.62s-.54.14-.77.25c-2.22,1.57-5.2,3.65-8,5.68,1.3-1,2.6-2.07,3.88-3.12s2.76-2.1,4.15-3.11c.16-.13.39-.27.46-.5a2.27,2.27,0,0,0-.55-1.21c-.18-.25-.39-.66-.75-.55-3.31,1.24-6.21,3.31-9.13,5.21-.64.41-1.28.79-1.92,1.21l7.53-5.16a.09.09,0,0,0,0-.16c-.23-.07-.57.41-.86.55-2.61,1.66-5.21,3.33-7.81,5a4,4,0,0,0,.23-.39c2.3-1.55,4.56-3.15,6.94-4.61a14.74,14.74,0,0,0,2.16-1.46c.28-.59,0-1-.52-1.3,0,0,0,0-.07-.09s0,0,0-.07l-.12-.11s-.07-.07-.11-.07a.79.79,0,0,0-.64,0c-1.67.76-3.22,1.74-4.82,2.6.35-.59.67-1.2,1-1.82,1-.57,2-1.1,3-1.62.12-.05.07-.23,0-.25-.62.25-1.19.66-1.8,1-.32.16-.64.32-.94.5a181.37,181.37,0,0,0-52.89-227.79c6.18-.55,12.46-.85,18.82-.85q4,0,7.94.16A181.1,181.1,0,0,1,732.17,412Z"/><path class="cls-15" d="M732.17,412a180.22,180.22,0,0,1-31.92,72.72l.07-.3a3.29,3.29,0,0,0-.07-1.53,4.29,4.29,0,0,0-2-2.3,6.19,6.19,0,0,0-4.43-.64c-1.07.16-2,.37-2.81.53.37-.53.73-1.05,1.12-1.56,2.58-3.51,5.36-6.84,8-10.26,0,0,.07,0,.12-.05a27,27,0,0,1,1.89-2.35l.78-1.14a.79.79,0,0,0,.16-.62,3.45,3.45,0,0,0-.82-.84.45.45,0,0,0-.53,0c-.91.62-1.8,1.25-2.71,1.89a7.51,7.51,0,0,0-.94-1.43c-.16-.23-.32-.53-.62-.62s-.54.14-.77.25c-2.22,1.57-5.2,3.65-8,5.68,1.3-1,2.6-2.07,3.88-3.12s2.76-2.1,4.15-3.11c.16-.13.39-.27.46-.5a2.27,2.27,0,0,0-.55-1.21c-.18-.25-.39-.66-.75-.55-3.31,1.24-6.21,3.31-9.13,5.21-.64.41-1.28.79-1.92,1.21l7.53-5.16a.09.09,0,0,0,0-.16c-.23-.07-.57.41-.86.55-2.61,1.66-5.21,3.33-7.81,5a4,4,0,0,0,.23-.39c2.3-1.55,4.56-3.15,6.94-4.61a14.74,14.74,0,0,0,2.16-1.46c.28-.59,0-1-.52-1.3,0,0,0,0-.07-.09s0,0,0-.07l-.12-.11s-.07-.07-.11-.07a.79.79,0,0,0-.64,0c-1.67.76-3.22,1.74-4.82,2.6.35-.59.67-1.2,1-1.82,1-.57,2-1.1,3-1.62.12-.05.07-.23,0-.25-.62.25-1.19.66-1.8,1-.32.16-.64.32-.94.5a181.37,181.37,0,0,0-52.89-227.79c6.18-.55,12.46-.85,18.82-.85q4,0,7.94.16A181.1,181.1,0,0,1,732.17,412Z"/><path class="cls-16" d="M673.07,474.18c3-1.88,6.1-3.68,9-5.71.63-.41,1.25-.84,1.89-1.28a4,4,0,0,1-.23.39c-3,1.94-6,3.83-9.1,5.71Z"/><path class="cls-17" d="M686.54,462.24a189.15,189.15,0,0,0-18.35,12.41,101.11,101.11,0,0,1,19.55-14.37c-.31.62-.63,1.23-1,1.82C686.7,462.15,686.6,462.2,686.54,462.24Z"/><path class="cls-18" d="M639.74,413.14c3.78-7.17,3.4-12.3-1-18.94-3-4.66-7.44-7.92-10.2-12.62l.27-.55A134,134,0,0,0,639,393.35a.14.14,0,0,0,.23-.16c-1.49-1.66-3-3.3-4.34-5a57.24,57.24,0,0,1-5.63-8.22c3.78-8,5.33-17.64,1.43-24.64a17.05,17.05,0,0,1,1.6,1.35,13.22,13.22,0,0,1,.87,2,14,14,0,0,1,.61,5.91,18,18,0,0,1-.66,3.18.16.16,0,0,0,.09.22c.07,0,.16,0,.19-.11a18.36,18.36,0,0,0,1-4.82,13.5,13.5,0,0,0-.12-3.76c.09.18.16.36.25.55,1,2.44.69,4.88,0,7.53-1,2.9-2.49,6.16-1.87,9.28a10,10,0,0,0,2.14,4.82,7.32,7.32,0,0,0,2.35,1.46.37.37,0,0,0,.14,0s.07-.06,0-.09a7.75,7.75,0,0,1-1.3-.61c-2.12-1.62-2.94-4.43-3.08-6.78a13.12,13.12,0,0,1,1.19-5.7,20.25,20.25,0,0,0,1.67-8.24,10.1,10.1,0,0,0-2-5.07c-.16-.22-.32-.41-.46-.61a20.53,20.53,0,0,0-1.59-3.22l-.44-.64a17.29,17.29,0,0,1,3.2,5.25c1.34.91-2.06-4.34-2.28-4.66-.48-.63-.87-1.18-1.26-1.71a19.06,19.06,0,0,1,2,2.51,15.42,15.42,0,0,1,3.38,7.6c.57,3.06-.07,6-.89,9-.05.13.18.16.2,0a24.21,24.21,0,0,0,1.21-8,17,17,0,0,0-3.72-9.91,35.91,35.91,0,0,0-2.76-3.58,18.65,18.65,0,0,1,4.61,4.81,11,11,0,0,1,1.83,6.1.09.09,0,0,0,.13.11,8.24,8.24,0,0,0-.34-3.44c-1.39-5.62-5.07-9.31-9.49-12.65.45.26.93.53,1.44.85,2.35,1.48,5,3.54,6,6.34a.17.17,0,0,0,.27.09c.18-.27-.34-.91-.5-1.23a22.32,22.32,0,0,0-5.57-6.39,12.25,12.25,0,0,1,1.73.89,12.74,12.74,0,0,1,3.66,3.72s.06,0,.09,0a10.75,10.75,0,0,0-1.1-1.62,51.84,51.84,0,0,0-5.47-5.52,5.9,5.9,0,0,1-.39-.46l.11.07a25.78,25.78,0,0,1,4.11,3.47.15.15,0,0,0,.27-.05c0-.27-.34-.46-.5-.66-1.67-1.46-3.42-3.42-3.83-4.93-.16-.36-.3-.73-.44-1.12a6.3,6.3,0,0,0-.16-1.12,10.42,10.42,0,0,0-.43-1.16c-.41-1.8-.78-3.51-1.71-4.27v0c-.3-1-.5-2-.71-3.06a1.42,1.42,0,0,0,.75-.68l0,0v0a3.06,3.06,0,0,0,.34-1,5.79,5.79,0,0,0,.16-1v-.07l0,0v-.05a5.08,5.08,0,0,0-.84-3.42c-.8-1.46-1.71-2.85-2.53-4.29a26.86,26.86,0,0,0-2.49-3.9c-5.46-6.62-12.42-12.46-20.52-15.68a26.29,26.29,0,0,0-5.91-1.78l-1.64-.32c-.64-.2-1.28-.41-1.91-.57a33.53,33.53,0,0,0-28.92,5.64,64.6,64.6,0,0,0-12.5,6.66,3.55,3.55,0,0,0-1.19,1.28,9.78,9.78,0,0,0-.32,1.37c-.09.32-.16.71-.27,1.1a25.19,25.19,0,0,0-2,2.44,40,40,0,0,0-5.23,7.66c-.22,0-.43,0-.61,0s-.19,0-.53.05a.63.63,0,0,0-.39.09.44.44,0,0,0-.18.13l-.07.07c-.43.32-.34.35-.64.82a27.36,27.36,0,0,0-2.35,8.52c-.54,3.24-.91,7-1.21,9.69.12,1,.35,1.76.37,2.58a1.87,1.87,0,0,1-.18.55c-.37.91-1,1.66-1.39,2.58a14.49,14.49,0,0,0-1.19,3.6c-.05.12,0,.21.14.25a9.91,9.91,0,0,0-.16,1.87c.32,5.62.52,15.45,6.34,18.17a5.05,5.05,0,0,0,.55.18c.07.8.13,1.69.18,2a.9.9,0,0,0,.14.39,1.11,1.11,0,0,0,.11.16.76.76,0,0,1,.11.14,1.34,1.34,0,0,0,.23.16l0,0a.84.84,0,0,0,.32.14c.09,3.44.36,6.91.32,10.35v0c-.16.27-.32.57-.48.86a4.91,4.91,0,0,1-.25.44c-.14.25-.28.48-.41.73s-.21.39-.32.57-.28.43-.39.64-.27.43-.41.64-.25.38-.39.57-.3.45-.43.66-.25.36-.39.52a6.78,6.78,0,0,1-.53.67,3.74,3.74,0,0,1-.36.45c-.21.25-.41.48-.62.71s-.2.23-.32.34c-.32.34-.66.66-1,1-.25.14-.5.39-.78.52-3.21,2.17-6.52,4.18-9.9,6.1l-1.12.54a6.62,6.62,0,0,1-1.46.32c-.84.21-1.39-.2-2.44-.09-1.57.14-1.94.78-2.78,1a14.58,14.58,0,0,0-2.24.71c-1.28.75-2.33,1.87-3.67,2.44-2.58,1.16-5.39,1.64-8.13,2.58a42.56,42.56,0,0,0-5.34,1.71,60.18,60.18,0,0,0-9.35,6.48c-2.56,2.62-4.31,5.86-6.28,8.92-.27.41-.61.87-.43,1.37a1.82,1.82,0,0,0,.27.41,1.62,1.62,0,0,0-.5.62c-.7,2.48-1.12,6.29-1.82,9.28-.3,1.37-.6,2.72-1,4.06a146.74,146.74,0,0,1-6.53-43.42c0-85.06,72.66-155,165.8-163.44A181.37,181.37,0,0,1,688,459.87c-8.44,4.33-16.2,10.24-23.18,16.11l-2.17,1.82c7.19-7.28,14.95-13.85,24-18.57,1.07-1.69-7,3.56-7.62,3.95-9.38,6.07-17.16,13.32-25.4,20.65-3.2,2.83-6.41,5.56-9.65,8.74a32.79,32.79,0,0,0-2.88-1.78c-.16-4.64-.36-9.29-.48-13.92a31.44,31.44,0,0,0,2.47-2.65,18.53,18.53,0,0,1,5-3.26,20,20,0,0,0,4.18-3.13l.06,0a.44.44,0,0,0,.28-.37s0-.06.11-.2a.46.46,0,0,0-.11-.43,13.39,13.39,0,0,0-.76-2.7c-1.2-3.31-2.41-6.25-3.78-9.28-.78-1.76-1.53-3.54-2.28-5.3-2-5.75-3.79-11.52-5.5-17.34h.11a0,0,0,0,0,0,0,1,1,0,0,1-.12-.46h-.13c-1.24-4.22-2.38-8.49-3.49-12.73C637.43,417.06,638.82,414.92,639.74,413.14Z"/><path class="cls-19" d="M639.74,413.14c3.78-7.17,3.4-12.3-1-18.94-3-4.66-7.44-7.92-10.2-12.62l.27-.55A134,134,0,0,0,639,393.35a.14.14,0,0,0,.23-.16c-1.49-1.66-3-3.3-4.34-5a57.24,57.24,0,0,1-5.63-8.22c3.78-8,5.33-17.64,1.43-24.64a17.05,17.05,0,0,1,1.6,1.35,13.22,13.22,0,0,1,.87,2,14,14,0,0,1,.61,5.91,18,18,0,0,1-.66,3.18.16.16,0,0,0,.09.22c.07,0,.16,0,.19-.11a18.36,18.36,0,0,0,1-4.82,13.5,13.5,0,0,0-.12-3.76c.09.18.16.36.25.55,1,2.44.69,4.88,0,7.53-1,2.9-2.49,6.16-1.87,9.28a10,10,0,0,0,2.14,4.82,7.32,7.32,0,0,0,2.35,1.46.37.37,0,0,0,.14,0s.07-.06,0-.09a7.75,7.75,0,0,1-1.3-.61c-2.12-1.62-2.94-4.43-3.08-6.78a13.12,13.12,0,0,1,1.19-5.7,20.25,20.25,0,0,0,1.67-8.24,10.1,10.1,0,0,0-2-5.07c-.16-.22-.32-.41-.46-.61a20.53,20.53,0,0,0-1.59-3.22l-.44-.64a17.29,17.29,0,0,1,3.2,5.25c1.34.91-2.06-4.34-2.28-4.66-.48-.63-.87-1.18-1.26-1.71a19.06,19.06,0,0,1,2,2.51,15.42,15.42,0,0,1,3.38,7.6c.57,3.06-.07,6-.89,9-.05.13.18.16.2,0a24.21,24.21,0,0,0,1.21-8,17,17,0,0,0-3.72-9.91,35.91,35.91,0,0,0-2.76-3.58,18.65,18.65,0,0,1,4.61,4.81,11,11,0,0,1,1.83,6.1.09.09,0,0,0,.13.11,8.24,8.24,0,0,0-.34-3.44c-1.39-5.62-5.07-9.31-9.49-12.65.45.26.93.53,1.44.85,2.35,1.48,5,3.54,6,6.34a.17.17,0,0,0,.27.09c.18-.27-.34-.91-.5-1.23a22.32,22.32,0,0,0-5.57-6.39,12.25,12.25,0,0,1,1.73.89,12.74,12.74,0,0,1,3.66,3.72s.06,0,.09,0a10.75,10.75,0,0,0-1.1-1.62,51.84,51.84,0,0,0-5.47-5.52,5.9,5.9,0,0,1-.39-.46l.11.07a25.78,25.78,0,0,1,4.11,3.47.15.15,0,0,0,.27-.05c0-.27-.34-.46-.5-.66-1.67-1.46-3.42-3.42-3.83-4.93-.16-.36-.3-.73-.44-1.12a6.3,6.3,0,0,0-.16-1.12,10.42,10.42,0,0,0-.43-1.16c-.41-1.8-.78-3.51-1.71-4.27v0c-.3-1-.5-2-.71-3.06a1.42,1.42,0,0,0,.75-.68l0,0v0a3.06,3.06,0,0,0,.34-1,5.79,5.79,0,0,0,.16-1v-.07l0,0v-.05a5.08,5.08,0,0,0-.84-3.42c-.8-1.46-1.71-2.85-2.53-4.29a26.86,26.86,0,0,0-2.49-3.9c-5.46-6.62-12.42-12.46-20.52-15.68a26.29,26.29,0,0,0-5.91-1.78l-1.64-.32c-.64-.2-1.28-.41-1.91-.57a33.53,33.53,0,0,0-28.92,5.64,64.6,64.6,0,0,0-12.5,6.66,3.55,3.55,0,0,0-1.19,1.28,9.78,9.78,0,0,0-.32,1.37c-.09.32-.16.71-.27,1.1a25.19,25.19,0,0,0-2,2.44,40,40,0,0,0-5.23,7.66c-.22,0-.43,0-.61,0s-.19,0-.53.05a.63.63,0,0,0-.39.09.44.44,0,0,0-.18.13l-.07.07c-.43.32-.34.35-.64.82a27.36,27.36,0,0,0-2.35,8.52c-.54,3.24-.91,7-1.21,9.69.12,1,.35,1.76.37,2.58a1.87,1.87,0,0,1-.18.55c-.37.91-1,1.66-1.39,2.58a14.49,14.49,0,0,0-1.19,3.6c-.05.12,0,.21.14.25a9.91,9.91,0,0,0-.16,1.87c.32,5.62.52,15.45,6.34,18.17a5.05,5.05,0,0,0,.55.18c.07.8.13,1.69.18,2a.9.9,0,0,0,.14.39,1.11,1.11,0,0,0,.11.16.76.76,0,0,1,.11.14,1.34,1.34,0,0,0,.23.16l0,0a.84.84,0,0,0,.32.14c.09,3.44.36,6.91.32,10.35v0c-.16.27-.32.57-.48.86a4.91,4.91,0,0,1-.25.44c-.14.25-.28.48-.41.73s-.21.39-.32.57-.28.43-.39.64-.27.43-.41.64-.25.38-.39.57-.3.45-.43.66-.25.36-.39.52a6.78,6.78,0,0,1-.53.67,3.74,3.74,0,0,1-.36.45c-.21.25-.41.48-.62.71s-.2.23-.32.34c-.32.34-.66.66-1,1-.25.14-.5.39-.78.52-3.21,2.17-6.52,4.18-9.9,6.1l-1.12.54a6.62,6.62,0,0,1-1.46.32c-.84.21-1.39-.2-2.44-.09-1.57.14-1.94.78-2.78,1a14.58,14.58,0,0,0-2.24.71c-1.28.75-2.33,1.87-3.67,2.44-2.58,1.16-5.39,1.64-8.13,2.58a42.56,42.56,0,0,0-5.34,1.71,60.18,60.18,0,0,0-9.35,6.48c-2.56,2.62-4.31,5.86-6.28,8.92-.27.41-.61.87-.43,1.37a1.82,1.82,0,0,0,.27.41,1.62,1.62,0,0,0-.5.62c-.7,2.48-1.12,6.29-1.82,9.28-.3,1.37-.6,2.72-1,4.06a146.74,146.74,0,0,1-6.53-43.42c0-85.06,72.66-155,165.8-163.44A181.37,181.37,0,0,1,688,459.87c-8.44,4.33-16.2,10.24-23.18,16.11l-2.17,1.82c7.19-7.28,14.95-13.85,24-18.57,1.07-1.69-7,3.56-7.62,3.95-9.38,6.07-17.16,13.32-25.4,20.65-3.2,2.83-6.41,5.56-9.65,8.74a32.79,32.79,0,0,0-2.88-1.78c-.16-4.64-.36-9.29-.48-13.92a31.44,31.44,0,0,0,2.47-2.65,18.53,18.53,0,0,1,5-3.26,20,20,0,0,0,4.18-3.13l.06,0a.44.44,0,0,0,.28-.37s0-.06.11-.2a.46.46,0,0,0-.11-.43,13.39,13.39,0,0,0-.76-2.7c-1.2-3.31-2.41-6.25-3.78-9.28-.78-1.76-1.53-3.54-2.28-5.3-2-5.75-3.79-11.52-5.5-17.34h.11a0,0,0,0,0,0,0,1,1,0,0,1-.12-.46h-.13c-1.24-4.22-2.38-8.49-3.49-12.73C637.43,417.06,638.82,414.92,639.74,413.14Z"/><path class="cls-20" d="M806.92,426.65A180.4,180.4,0,0,1,744,532a11.86,11.86,0,0,0,0-1.46.2.2,0,0,0-.05-.09,6.91,6.91,0,0,0-.18-1.62,5.71,5.71,0,0,0-.23-2c-1-2.24-1.48-4.63-2.33-6.91a23.84,23.84,0,0,0-3-5.46c-.48-.68-1-1.39-1.46-2.07A181.28,181.28,0,0,0,775.8,342.79v-.05s0-.06,0-.09a181.83,181.83,0,0,0-58-101.26,195.45,195.45,0,0,1,27.61,11.47A181.24,181.24,0,0,1,806.92,426.65Z"/></g></g></svg>